<?xml version="1.0" encoding="UTF-8"?>
<svg id="Capa_2" data-name="Capa 2" xmlns="http://www.w3.org/2000/svg" viewBox="0 0 40.35 48.38">
  <defs>
    <style>
      .cls-1 {
        fill: #fff;
      }
    </style>
  </defs>
  <g id="Capa_1-2" data-name="Capa 1">
    <g>
      <path class="cls-1" d="M9.13,0c3.75,0,7.5,0,11.24,0,.12.03.24.07.36.08,3.18.35,5.94,1.62,8.22,3.84,2.5,2.44,4.98,4.91,7.41,7.41,2.55,2.63,3.91,5.81,3.94,9.48.05,5.86.06,11.71,0,17.57-.05,5.63-4.51,9.97-10.13,9.98-6.68.01-13.35.01-20.03-.01-.87,0-1.77-.11-2.61-.33C3.05,46.85.05,42.91.04,38.18c-.01-5.21,0-10.42,0-15.63,0-4.28-.1-8.57.04-12.85C.22,5.47,2.43,2.49,6.28.78,7.17.39,8.18.25,9.13,0ZM20.18,4.11c-.42-.02-.79-.07-1.16-.07-2.93,0-5.86-.01-8.79,0-3.55.01-6.18,2.63-6.18,6.18,0,9.31,0,18.61,0,27.92,0,3.57,2.63,6.19,6.21,6.2,6.61,0,13.23,0,19.84,0,3.58,0,6.2-2.62,6.21-6.2,0-5.59,0-11.18,0-16.77,0-.39-.06-.78-.09-1.22-.23,0-.41,0-.6,0-3.12,0-6.24.02-9.35,0-3.47-.02-6.08-2.66-6.09-6.12,0-1.31,0-2.61,0-3.92,0-1.97,0-3.93,0-5.99ZM24.37,5.41s-.1.08-.15.11c0,.12,0,.25,0,.37,0,2.68,0,5.35,0,8.03,0,1.38.82,2.2,2.21,2.2,2.69,0,5.39,0,8.08,0,.11,0,.23-.02.51-.06-.64-.79-1.15-1.53-1.77-2.17-2.26-2.31-4.54-4.59-6.85-6.85-.62-.61-1.35-1.1-2.03-1.65Z"/>
      <path class="cls-1" d="M18.14,38.29c-1.44-.01-2.73-.44-3.82-1.38-1.21-1.03-2.38-2.1-3.55-3.18-.67-.61-.84-1.5-.49-2.29.33-.77,1.13-1.3,1.96-1.18.43.06.9.24,1.23.51,1.1.91,2.16,1.88,3.22,2.85.95.87,2.04.88,2.98-.01,2.36-2.24,4.72-4.5,7.08-6.74.84-.8,1.91-.89,2.74-.24,1,.78,1.06,2.18.11,3.1-1.22,1.18-2.46,2.35-3.69,3.52-1.17,1.12-2.35,2.24-3.52,3.35-1.18,1.12-2.59,1.69-4.23,1.69Z"/>
    </g>
  </g>
</svg>