<?xml version="1.0" encoding="UTF-8"?>
<svg id="Capa_2" data-name="Capa 2" xmlns="http://www.w3.org/2000/svg" viewBox="0 0 40.35 40.35">
  <defs>
    <style>
      .cls-1 {
        fill: #fff;
      }
    </style>
  </defs>
  <g id="Capa_1-2" data-name="Capa 1">
    <g>
      <path class="cls-1" d="M40.35,9.61c-.04.15-.07.3-.1.45-.17.77-.48,1.47-.96,2.09-.58.75-1.16,1.49-1.74,2.24-.65.82-1.66.97-2.43.37-.75-.59-.85-1.61-.23-2.42.55-.72,1.11-1.43,1.67-2.14.75-.97.54-2-.52-2.62-3.83-2.2-7.94-3.52-12.32-4.03-.6-.07-1.2-.1-1.84-.15,0,.19,0,.33,0,.47,0,1.54,0,3.07-.01,4.61,0,.73-.5,1.32-1.21,1.52-.68.19-1.43-.03-1.8-.64-.19-.32-.31-.73-.31-1.11-.04-1.46-.01-2.91-.01-4.37,0-.14,0-.28,0-.5-.85.08-1.65.13-2.45.24-4.18.56-8.11,1.87-11.77,3.98-1.01.59-1.22,1.64-.5,2.56.56.71,1.12,1.42,1.68,2.14.64.82.54,1.86-.23,2.45-.77.6-1.77.44-2.43-.39-.57-.72-1.14-1.44-1.7-2.17C-.84,9.7-.15,6.29,2.61,4.71,6.26,2.6,10.16,1.17,14.32.49c8.35-1.35,16.21.07,23.55,4.28,1.34.77,2.14,1.94,2.41,3.47.02.09.05.17.07.26v1.1Z"/>
      <path class="cls-1" d="M19.47,40.35c-.24-.06-.48-.11-.72-.17-2.69-.66-4.64-3.27-4.46-5.98.19-2.93,2.33-5.25,5.17-5.58.8-.09,1.6-.04,2.37.23.26.09.39.03.55-.18,2.7-3.68,5.41-7.36,8.11-11.04.4-.55.92-.88,1.6-.8,1.33.14,1.97,1.58,1.18,2.68-.99,1.38-2,2.73-3,4.09-1.72,2.34-3.43,4.67-5.16,7-.18.24-.21.4-.03.68,2.35,3.55.2,8.37-4.01,9-.09.01-.18.05-.26.07h-1.34ZM20.17,36.98c1.39,0,2.52-1.11,2.53-2.49.01-1.39-1.13-2.55-2.52-2.55-1.37,0-2.51,1.13-2.52,2.5,0,1.4,1.11,2.54,2.51,2.54Z"/>
      <path class="cls-1" d="M40.35,32.31c-.37,1.03-1.14,1.4-2.18,1.32-.38-.03-.76,0-1.19,0,0,.37,0,.71,0,1.05,0,.76,0,1.52,0,2.28-.02.98-.75,1.72-1.68,1.71-.92,0-1.65-.73-1.66-1.69-.01-2.81-.02-5.62,0-8.42.02-1.92,1.48-3.32,3.41-3.33.41,0,.82.02,1.22,0,1.04-.07,1.74.35,2.08,1.34v.71c-.37,1.03-1.14,1.4-2.18,1.32-.38-.03-.77,0-1.15,0v1.67c.44,0,.85.02,1.25,0,1.04-.07,1.74.35,2.08,1.34v.71Z"/>
      <path class="cls-1" d="M3.4,28.59v1.67c.53,0,1.04,0,1.55,0,1.03,0,1.76.69,1.78,1.65.01.98-.72,1.69-1.76,1.71-.51,0-1.02,0-1.56,0v1.68c.51,0,1.02,0,1.53,0,1.03,0,1.77.68,1.79,1.64.02.99-.7,1.71-1.75,1.72-.68,0-1.37.02-2.04-.05-1.62-.17-2.9-1.57-2.91-3.2-.02-2.31-.02-4.62,0-6.93.02-1.75,1.47-3.2,3.21-3.26.62-.02,1.23-.02,1.85,0,.88.02,1.59.7,1.64,1.55.05.91-.52,1.66-1.42,1.78-.45.06-.92.03-1.38.04-.17,0-.33,0-.52,0Z"/>
    </g>
  </g>
</svg>