<?xml version="1.0" encoding="UTF-8"?>
<svg id="Capa_2" data-name="Capa 2" xmlns="http://www.w3.org/2000/svg" viewBox="0 0 40.35 40.33">
  <defs>
    <style>
      .cls-1 {
        fill: #fff;
      }
    </style>
  </defs>
  <g id="Capa_1-2" data-name="Capa 1">
    <path class="cls-1" d="M6,40.33c-.42-.1-.84-.18-1.25-.31-3.02-.92-5.03-3.91-4.72-7,.33-3.28,2.85-5.81,6.09-6.11,1.36-.13,2.63.16,3.87.8,1.04-.97,2.08-1.95,3.15-2.94-.07-.13-.13-.25-.2-.37-2.08-3.55-1.3-8.05,1.86-10.7.09-.08.14-.21.2-.32-.13-.02-.27-.07-.39-.05-3.74.63-7.19-1.87-7.79-5.67C6.25,4.13,8.8.66,12.4.08c2.87-.46,5.73.99,7.05,3.59,1.32,2.59.82,5.72-1.23,7.78-.03.03-.07.05-.08.08-.05.12-.08.24-.12.36.12.02.23.07.35.06.89-.05,1.78-.2,2.66-.14,3.89.27,7.24,3.66,7.53,7.55.08,1.06,0,2.09-.29,3.12-.02.08-.02.17-.03.25.04.03.09.07.13.1.04-.09.07-.21.13-.28,1.91-2.12,4.26-2.91,7-2.12,2.72.79,4.29,2.69,4.79,5.48.02.1.05.2.07.3v1.34c-.03.1-.06.2-.08.3-.52,3.62-3.85,6.13-7.54,5.68-3.53-.43-6.13-3.69-5.8-7.27.02-.18.1-.37-.17-.49-.27-.13-.37.03-.52.18-2.2,2.2-4.83,3-7.88,2.4-1.03-.2-1.96-.64-2.85-1.21-1.04.97-2.06,1.93-3.08,2.88.07.13.13.22.18.31,2.13,3.9.06,8.67-4.24,9.78-.29.07-.58.14-.87.2h-1.5ZM25.23,20.17c0-2.78-2.24-5.04-5.02-5.05-2.79,0-5.06,2.27-5.06,5.05,0,2.77,2.27,5.02,5.05,5.03,2.77,0,5.03-2.26,5.03-5.04ZM36.98,26.91c.02-1.86-1.46-3.36-3.32-3.38-1.86-.01-3.37,1.46-3.39,3.31-.02,1.85,1.48,3.38,3.31,3.4,1.88.02,3.39-1.46,3.4-3.34ZM6.72,36.96c1.88,0,3.38-1.49,3.38-3.36,0-1.84-1.52-3.35-3.36-3.35-1.86,0-3.35,1.49-3.36,3.35,0,1.86,1.48,3.36,3.33,3.37ZM13.49,3.36c-1.84-.02-3.36,1.45-3.39,3.28-.03,1.88,1.45,3.41,3.31,3.44,1.85.03,3.37-1.45,3.4-3.3.03-1.89-1.44-3.39-3.32-3.41Z"/>
  </g>
</svg>