<?xml version="1.0" encoding="UTF-8"?>
<svg id="Capa_2" data-name="Capa 2" xmlns="http://www.w3.org/2000/svg" viewBox="0 0 40.35 40.32">
  <defs>
    <style>
      .cls-1 {
        fill: #fff;
      }
    </style>
  </defs>
  <g id="Capa_1-2" data-name="Capa 1">
    <g>
      <path class="cls-1" d="M40.35,12.19c-.07.24-.13.48-.22.71-.47,1.28-1.67,2.18-3.03,2.19-2.28.02-4.57.02-6.85,0-.89,0-1.59-.69-1.65-1.54-.06-.91.52-1.64,1.41-1.79.19-.03.39-.03.59-.03,1.35,0,2.7,0,4.13,0-.11-.19-.18-.32-.26-.45-2.8-4.39-6.77-7.05-11.93-7.77C13.75,2.3,5.65,7.98,3.75,16.63c-1.72,7.82,2.49,15.86,9.98,19.03,9.52,4.03,20.57-1.65,22.82-11.75.25-1.12.29-2.28.43-3.43.03-.29.03-.58.11-.86.19-.65.79-1.1,1.46-1.14.72-.04,1.34.31,1.64.93.06.11.11.23.17.34v1.65c-.02.1-.05.2-.07.3-.14.92-.22,1.85-.41,2.76-1.66,7.9-8.24,14.2-16.21,15.54-.73.12-1.48.21-2.21.31h-2.52c-.11-.02-.23-.05-.34-.07-.69-.09-1.38-.14-2.06-.28-4.05-.79-7.59-2.61-10.47-5.56C.81,29.04-1.13,22.62.64,15.3,3.04,5.37,12.37-1.02,22.56.14c5.52.63,10,3.19,13.47,7.52.31.38.59.78.95,1.26,0-1.07,0-2.02,0-2.98,0-.41,0-.82.05-1.22.11-.72.7-1.27,1.39-1.36.78-.09,1.46.27,1.77.96.05.1.1.2.15.3v7.56Z"/>
      <path class="cls-1" d="M18.51,28.61c-.55-.07-1.06-.09-1.55-.2-1.37-.3-2.44-1.07-3.19-2.26-.54-.86-.34-1.87.47-2.38.79-.51,1.78-.29,2.33.55.4.6.94.88,1.66.87,1.19-.01,2.39,0,3.58,0,.71,0,1.24-.32,1.56-.95.46-.92,0-1.85-1.01-2.03-1.12-.2-2.25-.38-3.38-.56-.54-.09-1.09-.16-1.63-.27-1.87-.38-3.17-1.45-3.69-3.3-.53-1.87-.03-3.53,1.34-4.91.82-.82,1.84-1.29,3.01-1.4.15-.01.31-.04.51-.06,0-.62-.03-1.23,0-1.83.05-.86.79-1.5,1.67-1.5.88,0,1.6.67,1.64,1.53.02.46,0,.92.01,1.38,0,.13,0,.26,0,.38.55.07,1.06.09,1.55.19,1.39.3,2.46,1.08,3.21,2.29.52.84.3,1.85-.49,2.35-.8.51-1.78.29-2.34-.55-.39-.59-.91-.87-1.62-.87-1.22,0-2.44,0-3.66,0-.74,0-1.28.37-1.56,1.05-.38.9.09,1.75,1.06,1.92,1.15.2,2.3.38,3.45.57.54.09,1.09.17,1.63.28,3.49.73,4.98,4.66,2.84,7.54-.89,1.2-2.08,1.89-3.58,2.05-.13.01-.26.03-.39.04-.02,0-.05.02-.12.06,0,.57.03,1.18,0,1.78-.05.84-.78,1.49-1.64,1.5-.88,0-1.62-.64-1.68-1.49-.03-.46-.01-.92-.02-1.38,0-.14,0-.28,0-.42Z"/>
    </g>
  </g>
</svg>