<?xml version="1.0" encoding="UTF-8"?>
<svg id="Capa_2" data-name="Capa 2" xmlns="http://www.w3.org/2000/svg" viewBox="0 0 40.35 40.36">
  <defs>
    <style>
      .cls-1 {
        fill: #fff;
      }
    </style>
  </defs>
  <g id="Capa_1-2" data-name="Capa 1">
    <g>
      <path class="cls-1" d="M2.05,0c1.01.37,1.33,1.11,1.33,2.15-.02,9.88,0,19.76-.01,29.63,0,1.98.83,3.49,2.51,4.52.69.43,1.46.65,2.28.68.21,0,.42,0,.63,0,9.88,0,19.76,0,29.63,0,.98,0,1.63.42,1.86,1.2.31,1.04-.42,2.09-1.51,2.16-.08,0-.16,0-.24,0-10.02,0-20.05,0-30.07,0-4.03,0-7.37-2.69-8.27-6.61C.12,33.43.06,33.11,0,32.79c0-10.48,0-20.97,0-31.45C.22.67.66.22,1.34,0h.71Z"/>
      <path class="cls-1" d="M38.86,0s.09.05.14.06c1.38.39,1.78,1.86.77,2.9-.94.96-1.89,1.9-2.84,2.84-2.11,2.11-4.21,4.22-6.33,6.33-2.17,2.16-5.24,2.16-7.41,0-1.13-1.12-2.25-2.25-3.37-3.37-.84-.83-1.83-.83-2.67,0-1.92,1.92-3.85,3.84-5.77,5.77-.34.34-.72.58-1.2.6-.71.02-1.26-.27-1.58-.9-.32-.63-.26-1.24.17-1.81.09-.13.21-.23.32-.35,1.9-1.9,3.81-3.81,5.71-5.71,2.13-2.13,5.21-2.14,7.35-.02,1.15,1.14,2.28,2.29,3.43,3.43.84.84,1.79.84,2.63,0,2.95-2.94,5.89-5.89,8.83-8.84.39-.39.79-.76,1.34-.92.16,0,.32,0,.47,0Z"/>
      <path class="cls-1" d="M33.64,23.52c0-2.78,0-5.57,0-8.35,0-1.24,1.17-2.05,2.28-1.6.64.26,1,.75,1.05,1.44,0,.08,0,.16,0,.24,0,5.53,0,11.05,0,16.58,0,.97-.54,1.63-1.44,1.78-.93.15-1.84-.55-1.9-1.5-.03-.51-.01-1.02-.01-1.54,0-2.35,0-4.7,0-7.05Z"/>
      <path class="cls-1" d="M20.18,24.4c0,2.51,0,5.01,0,7.52,0,.77-.45,1.39-1.15,1.62-.67.22-1.43.04-1.83-.55-.21-.32-.38-.74-.38-1.12-.02-4.99-.02-9.97-.01-14.96,0-1.04.74-1.78,1.71-1.77.95.01,1.65.76,1.65,1.78,0,2.49,0,4.99,0,7.48Z"/>
      <path class="cls-1" d="M11.76,26.05c0,1.97,0,3.94,0,5.91,0,.69-.33,1.21-.95,1.51-.61.29-1.2.22-1.74-.19-.45-.34-.65-.8-.65-1.37,0-1.1,0-2.2,0-3.31,0-2.78,0-5.56,0-8.35,0-1.27,1.16-2.09,2.29-1.64.66.26,1.05.86,1.05,1.64,0,1.93,0,3.86,0,5.79Z"/>
      <path class="cls-1" d="M25.22,26.87c0-1.63,0-3.25,0-4.88,0-1.05.7-1.8,1.66-1.81.97,0,1.7.74,1.7,1.78,0,3.29,0,6.59,0,9.88,0,1.04-.73,1.8-1.69,1.8-.96,0-1.67-.76-1.68-1.8,0-1.65,0-3.31,0-4.96Z"/>
    </g>
  </g>
</svg>