<?xml version="1.0" encoding="UTF-8"?>
<svg id="Capa_2" data-name="Capa 2" xmlns="http://www.w3.org/2000/svg" viewBox="0 0 41.78 34.47">
  <defs>
    <style>
      .cls-1 {
        fill: #fff;
      }
    </style>
  </defs>
  <g id="Capa_1-2" data-name="Capa 1">
    <g>
      <path class="cls-1" d="M.71,3.39v5.75h27.81v23.36h-6.91V14.83l-1.82-1.82h-10.1c-1.02.09-1.94.63-2.65,1.54-.7.9-1.1,2.06-1.1,3.2v5.1l4.12,3.81v5.85H.83v1.26h40.23v-1.26h-11.28V9.14h8.73l2.42-2.42V.71H3.39C1.91.71.71,1.91.71,3.39ZM10.06,24.95l-2.88-2.66v-4.55c0-1.44.92-3.17,2.41-3.46l.47-.09v10.76ZM20.37,32.5h-9.06v-8.99h9.06v8.99ZM20.37,22.24h-9.06v-7.98h7.97l1.09,1.09v6.89ZM39.68,6.2l-1.69,1.69H1.96V3.39c0-.79.64-1.43,1.43-1.43h36.3v4.25Z"/>
      <path class="cls-1" d="M41.07,34.47H.83c-.39,0-.71-.32-.71-.71v-1.26c0-.39.32-.71.71-.71h8.52v-4.82l-3.89-3.6c-.15-.13-.23-.32-.23-.52v-5.1c0-1.29.46-2.62,1.26-3.63.83-1.07,1.92-1.69,3.14-1.81h10.17c.19,0,.37.07.5.21l1.82,1.82c.13.13.21.31.21.5v16.95h5.48V9.85H.71c-.39,0-.71-.32-.71-.71V3.39C0,1.52,1.52,0,3.39,0h37.54c.39,0,.71.32.71.71v6.01c0,.19-.08.37-.21.5l-2.41,2.41c-.13.13-.31.21-.5.21h-8.02v21.94h10.57c.39,0,.71.32.71.71v1.26c0,.39-.32.71-.71.71ZM28.98,33.05h.35c-.07-.06-.13-.13-.18-.22-.04.08-.1.16-.18.22ZM20.83,33.05h.34c-.07-.06-.13-.13-.17-.2-.04.08-.1.15-.17.2ZM10.52,33.05h.34c-.07-.06-.13-.13-.17-.2-.04.08-.1.15-.17.2ZM12.02,31.78h7.64v-7.57h-7.64v7.57ZM10.05,25.66l.5.46s.03.03.05.05v-.75c-.07.08-.15.14-.25.18s-.19.06-.3.06ZM7.9,21.99l1.45,1.34v-8.22c-.88.42-1.45,1.62-1.45,2.64v4.24ZM20.7,22.87c.08.04.14.09.2.16v-.32c-.06.06-.13.12-.2.16ZM10.78,22.71v.32c.06-.06.13-.12.2-.16-.08-.04-.14-.09-.2-.16ZM12.02,21.53h7.64v-5.89l-.67-.67h-6.97v6.56ZM10.6,13.72s.08.1.1.16c.04-.06.08-.11.13-.16h-.23ZM29,8.6c.06.06.12.13.16.2.04-.08.09-.14.16-.2h-.32ZM1.42,8.42h.06s-.04-.04-.06-.06v.06ZM2.67,7.18h35.03l1.27-1.27v-3.24H3.39c-.4,0-.72.32-.72.72v3.79ZM39.68,6.2h.01-.01ZM40.16,1.42s.04.04.06.06l-.06-.06Z"/>
    </g>
  </g>
</svg>