<?xml version="1.0" encoding="UTF-8"?>
<svg id="Capa_2" data-name="Capa 2" xmlns="http://www.w3.org/2000/svg" viewBox="0 0 76.26 76.26">
  <defs>
    <style>
      .cls-1 {
        fill: #75f9fb;
      }
    </style>
  </defs>
  <g id="Capa_1-2" data-name="Capa 1">
    <g>
      <path class="cls-1" d="M40.52,76.26h-4.76c-.24-.05-.48-.1-.72-.13-1.59-.23-3.21-.36-4.78-.7-9.18-1.99-16.7-6.71-22.37-14.17C1.07,52.27-1.35,42.13.71,31.07c1.91-10.29,7.34-18.44,15.94-24.37C25.03.93,34.35-1.07,44.39.53c7.25,1.16,13.64,4.26,19.1,9.18,6.54,5.89,10.64,13.17,12.18,21.86.25,1.39.39,2.79.59,4.19v4.77c-.04.19-.11.38-.12.57-.45,5.88-2.14,11.39-5.21,16.42-6.05,9.91-14.79,16.01-26.22,18.16-1.38.26-2.79.39-4.18.58ZM38.13,6.38c-17.54.01-31.77,14.26-31.74,31.78.03,17.53,14.19,31.69,31.72,31.73,17.51.04,31.76-14.2,31.77-31.75.01-17.53-14.23-31.78-31.76-31.76Z"/>
      <path class="cls-1" d="M34.98,54.13c-1.04-.12-1.99-.16-2.91-.36-2.63-.56-4.65-2.03-6.08-4.31-.99-1.58-.6-3.48.88-4.46,1.49-.98,3.39-.58,4.42.99.77,1.17,1.8,1.69,3.19,1.67,2.26-.03,4.52,0,6.77-.01,1.27,0,2.24-.57,2.85-1.7.96-1.77.08-3.59-1.9-3.93-2.12-.37-4.26-.69-6.38-1.07-1.58-.28-3.23-.43-4.72-.99-6.2-2.31-7.65-10.31-2.8-15,1.58-1.53,3.47-2.45,5.68-2.66.29-.03.59-.07.99-.12,0-1.1-.04-2.18,0-3.26.1-2.32,2.52-3.74,4.58-2.68,1.08.55,1.68,1.46,1.72,2.68.03,1.06,0,2.13,0,3.25.67.05,1.28.08,1.89.15,3.11.36,5.49,1.9,7.14,4.54.96,1.54.54,3.45-.91,4.39-1.5.98-3.39.57-4.42-.99-.75-1.14-1.76-1.68-3.12-1.67-2.28.02-4.57,0-6.85.01-1.56.01-2.82,1.02-3.14,2.46-.34,1.56.47,2.86,2.04,3.14,2.19.4,4.4.73,6.6,1.1,1.05.18,2.11.33,3.15.55,6.49,1.36,9.33,8.69,5.45,14.08-1.7,2.36-4,3.73-6.91,4.02-.25.02-.49.06-.74.1-.02,0-.04.02-.17.09,0,1.02.03,2.11,0,3.19-.05,1.44-1.04,2.62-2.41,2.95-1.35.32-2.79-.25-3.44-1.48-.28-.52-.4-1.17-.44-1.77-.07-.96-.02-1.93-.02-2.91Z"/>
    </g>
  </g>
</svg>