<?xml version="1.0" encoding="UTF-8"?>
<svg id="Capa_2" data-name="Capa 2" xmlns="http://www.w3.org/2000/svg" viewBox="0 0 76.26 76.23">
  <defs>
    <style>
      .cls-1 {
        fill: #75f9fb;
      }
    </style>
  </defs>
  <g id="Capa_1-2" data-name="Capa 1">
    <g>
      <path class="cls-1" d="M0,46.46c.12-.45.22-.91.35-1.35.85-2.82,2.6-4.87,5.28-6.09.61-.28.75-.59.75-1.22-.02-7.24-.03-14.49,0-21.73.02-6.78,3.9-12.52,10.06-14.96C18.23.4,20.09.02,22.02.02c10.72,0,21.43-.04,32.15,0,8.55.04,15.48,6.93,15.67,15.49.03,1.19.03,2.38,0,3.57-.04,1.82-1.41,3.15-3.19,3.13-1.73-.01-3.06-1.34-3.13-3.12-.06-1.66.07-3.35-.22-4.97-.84-4.66-4.72-7.75-9.53-7.75-8.63-.01-17.27,0-25.9,0-1.89,0-3.77-.02-5.66,0-5.32.07-9.49,4.18-9.52,9.51-.05,7.22-.01,14.44-.01,21.66,0,.17.02.34.04.58h.83c4.34,0,8.68.02,13.02-.01,1.17,0,2.22.28,2.91,1.21,1.24,1.7,2.85,2.26,4.88,1.98.52-.07,1.1.02,1.61.18,1.45.45,2.31,1.9,2.12,3.44-.18,1.43-1.45,2.66-2.93,2.7-1.73.05-3.48.11-5.21-.03-.72-.06-1.47-.53-2.09-.98-.66-.47-1.15-1.16-1.77-1.7-.25-.22-.63-.41-.95-.42-5.21-.02-10.42-.03-15.63,0-1.62,0-2.92,1.15-3.13,2.64-.23,1.64.7,3.12,2.26,3.55.45.12.93.12,1.4.12,8.16,0,16.32,0,24.48,0,1.74,0,2.96.8,3.41,2.22.65,2.04-.83,4.1-3.01,4.13-1.91.03-3.82,0-5.73,0-6.35,0-12.7-.1-19.05.03-5.52.11-9.51-3.87-10.06-8.18,0-.07-.07-.13-.1-.19,0-.79,0-1.59,0-2.38Z"/>
      <path class="cls-1" d="M55.82,76.23c-.93-.23-1.89-.4-2.79-.71-5-1.69-8.48-6.32-8.53-11.57-.07-7.69-.09-15.38,0-23.07.08-6.75,5.7-12.21,12.46-12.26,2.75-.02,5.52-.13,8.25.15,6.05.63,10.9,5.94,10.97,11.99.09,7.76.09,15.53,0,23.3-.07,5.96-4.83,11.19-10.72,12.03-.19.03-.37.1-.56.15h-9.08ZM69.85,52.44c0-3.62.01-7.24,0-10.87-.02-3.92-2.68-6.59-6.58-6.62-1.96-.01-3.92-.01-5.88,0-3.88.03-6.58,2.73-6.59,6.63-.02,7.22-.02,14.44,0,21.66,0,3.89,2.72,6.59,6.6,6.62,1.96.01,3.92,0,5.88,0,.47,0,.95-.01,1.41-.11,3.06-.61,5.13-3.11,5.15-6.3.03-3.67,0-7.34,0-11.01Z"/>
    </g>
  </g>
</svg>