<?xml version="1.0" encoding="UTF-8"?>
<svg id="Capa_2" data-name="Capa 2" xmlns="http://www.w3.org/2000/svg" viewBox="0 0 69.9 88.96">
  <defs>
    <style>
      .cls-1 {
        fill: #75f9fb;
      }
    </style>
  </defs>
  <g id="Capa_1-2" data-name="Capa 1">
    <g>
      <path class="cls-1" d="M37.14,0c1.39.22,2.8.37,4.18.66,10.22,2.09,17.95,7.75,23.33,16.6,3.86,6.35,5.66,13.3,5.17,20.73-.53,8.04-6.22,14.83-14.03,16.88-1.77.47-3.65.65-5.48.71-3.27.11-6.54.02-9.82.05-.42,0-.91.17-1.24.43-2.56,2-5.97,2.18-8.68.42-2.65-1.72-3.9-4.93-3.14-8.03.72-2.94,3.41-5.27,6.34-5.52,3.41-.29,6.33,1.39,7.6,4.45.27.65.58.84,1.26.83,2.81-.04,5.62.03,8.43-.04,5.44-.13,10.09-4,11.2-9.31.56-2.68.26-5.38-.27-8.02-1.86-9.24-6.81-16.28-15.26-20.56C31.04,2.29,11.48,11.69,7.61,28.94c-.12.54-.21,1.08-.34,1.61-.46,1.94-2.37,3.16-4.29,2.74-2.01-.43-3.28-2.28-2.93-4.26C2.58,14.68,13.94,3.21,28.25.58,29.58.34,30.93.19,32.28,0c1.62,0,3.24,0,4.87,0Z"/>
      <path class="cls-1" d="M34.73,63.03c12.88.02,24.2,7.52,28.71,19.04.31.78.61,1.57.8,2.38.43,1.9-.66,3.77-2.45,4.32-1.88.59-3.8-.31-4.56-2.15-.43-1.04-.75-2.13-1.26-3.13-3.76-7.38-9.82-11.73-17.96-12.78-9.83-1.26-17.7,2.35-23.3,10.56-1.04,1.53-1.68,3.35-2.39,5.08-.75,1.84-2.51,2.92-4.33,2.51-2.22-.5-3.42-2.64-2.7-4.89,2.04-6.36,5.82-11.46,11.27-15.31,5.31-3.75,11.56-5.66,18.18-5.65Z"/>
      <path class="cls-1" d="M19.89,49.17c-1.83-1.92-3.17-4.03-4.1-6.38-4.93-12.41,3.13-26.09,16.38-27.81,12.04-1.56,22.75,7.75,22.9,19.91.01.95-.01,1.92-.17,2.85-.32,1.93-2.1,3.22-4.04,3.02-1.93-.19-3.24-1.72-3.3-3.72-.05-1.75.03-3.56-.38-5.24-1.44-5.97-7.23-10.01-13.41-9.55-6.24.47-11.34,5.41-11.96,11.56-.23,2.27.12,4.43.97,6.54.11.27.12.7-.02.92-1.58,2.22-2.49,4.68-2.76,7.39-.01.13-.06.26-.11.5Z"/>
    </g>
  </g>
</svg>