<?xml version="1.0" encoding="UTF-8"?>
<svg id="Capa_2" data-name="Capa 2" xmlns="http://www.w3.org/2000/svg" viewBox="0 0 76.26 76.26">
  <defs>
    <style>
      .cls-1 {
        fill: #75f9fb;
      }
    </style>
  </defs>
  <g id="Capa_1-2" data-name="Capa 1">
    <path class="cls-1" d="M66.72,76.26H9.5c-.48-.24-.97-.48-1.45-.73-6.2-3.22-8.94-8.67-7.79-15.54.72-4.31,2.59-8.16,4.88-11.82,4.5-7.2,10.27-13.31,16.54-18.97.38-.35.55-.68.55-1.2-.02-6.95-.01-13.91-.01-20.86,0-.26-.02-.52-.04-.85h-6.23V0h44.37v6.36h-6.24c-.02.2-.04.3-.04.4,0,7.15,0,14.3.02,21.45,0,.33.27.73.53.96,5.14,4.67,9.94,9.65,14.03,15.28,2.84,3.91,5.31,8.03,6.7,12.7.42,1.42.64,2.89.96,4.34v2.98c-.04.14-.11.28-.13.42-.4,3.1-1.8,5.68-4.03,7.83-1.57,1.52-3.42,2.6-5.38,3.52ZM59.23,53.65c-.05.07-.1.14-.15.21-.29,0-.59,0-.88,0-15.99,0-31.98,0-47.97,0-.22,0-.46-.05-.67.01-.23.07-.52.2-.62.39-1.22,2.29-2.16,4.68-2.53,7.27-.51,3.51.81,6.32,3.82,8.05.31.18.69.3,1.04.3,17.88.01,35.75.01,53.63,0,.31,0,.68-.05.91-.22.82-.59,1.69-1.16,2.36-1.91,1.87-2.08,1.95-4.58,1.44-7.16-.7-3.54-2.34-6.68-4.29-9.66-4.7-7.16-10.57-13.27-17.09-18.76-.44-.37-.61-.74-.61-1.31.02-7.87.01-15.74.01-23.62v-.87h-19.07v.91c0,7.87,0,15.74.01,23.62,0,.55-.15.9-.58,1.25-5.27,4.38-10.02,9.27-14.22,14.68-.14.18-.26.38-.46.66h1.02c12.91,0,25.82.01,38.73-.02.99,0,1.65.24,2.23,1.05,1.26,1.75,2.61,3.43,3.92,5.13Z"/>
  </g>
</svg>