<?xml version="1.0" encoding="UTF-8"?>
<svg id="Capa_2" data-name="Capa 2" xmlns="http://www.w3.org/2000/svg" viewBox="0 0 76.26 57.21">
  <defs>
    <style>
      .cls-1 {
        fill: #75f9fb;
      }
    </style>
  </defs>
  <g id="Capa_1-2" data-name="Capa 1">
    <g>
      <path class="cls-1" d="M76.26,14.46v28.29c-.05.19-.11.37-.14.56-1.07,7.97-7.68,13.85-15.72,13.87-14.86.03-29.72.04-44.58,0C7.1,57.16.07,50.11.03,41.4c-.04-8.53-.04-17.07,0-25.6C.07,7.09,7.11.05,15.82.03c14.89-.04,29.77-.03,44.66,0,7.14.01,13.32,4.81,15.2,11.69.25.9.39,1.83.58,2.74ZM6.42,22.28c-.01.26-.04.48-.04.7,0,6.08,0,12.16,0,18.24,0,.54.02,1.1.12,1.63.88,4.82,4.69,7.97,9.66,7.97,14.64,0,29.28,0,43.91,0,.59,0,1.2,0,1.78-.11,4.79-.85,8-4.65,8.02-9.54.02-6.05,0-12.11,0-18.16,0-.24-.03-.47-.05-.72H6.42ZM69.99,15.86c-.19-.99-.28-1.93-.55-2.81-1.25-4.09-4.87-6.67-9.35-6.67-13.74,0-27.49,0-41.23,0-1.14,0-2.28-.02-3.42.02-4.23.15-7.96,3.28-8.84,7.42-.14.66-.16,1.34-.25,2.04h63.64Z"/>
      <path class="cls-1" d="M17.52,34.97c2.66.02,4.74,2.13,4.72,4.8-.02,2.61-2.13,4.72-4.74,4.72-2.61,0-4.79-2.18-4.78-4.78,0-2.63,2.16-4.75,4.8-4.74Z"/>
    </g>
  </g>
</svg>