<?xml version="1.0" encoding="UTF-8"?>
<svg id="Capa_2" data-name="Capa 2" xmlns="http://www.w3.org/2000/svg" viewBox="0 0 30.89 30.89">
  <defs>
    <style>
      .cls-1 {
        fill: aqua;
      }
    </style>
  </defs>
  <g id="Capa_5" data-name="Capa 5">
    <g>
      <path class="cls-1" d="M30.89,25.7c-.06.25-.11.51-.17.76-.63,2.59-2.92,4.42-5.59,4.43-6.45.01-12.91.01-19.36,0C2.58,30.88.01,28.3,0,25.1c0-5.15,0-10.29,0-15.44,0-3.22,2.57-5.78,5.79-5.79,3.82-.01,7.64,0,11.46,0,.44,0,.69.18.75.54.06.34-.17.68-.52.73-.13.02-.26.01-.39.01-3.72,0-7.44,0-11.16,0-2,0-3.66,1.11-4.36,2.89-.11.28-.1.46.14.7,3.5,3.48,6.99,6.97,10.48,10.46,1.87,1.87,4.71,1.84,6.54-.05,1.92-1.98,3.85-3.97,5.77-5.96.2-.21.42-.38.74-.3.43.11.63.56.4.95-.06.1-.15.19-.23.28-1.9,1.97-3.8,3.93-5.7,5.9-2.4,2.48-6.02,2.5-8.47.06-3.21-3.21-6.43-6.43-9.64-9.64-.08-.08-.14-.19-.21-.29-.03.02-.06.03-.08.05,0,.07-.02.14-.02.22,0,4.88,0,9.75,0,14.63,0,2.57,1.97,4.56,4.54,4.56,6.4.01,12.81.01,19.21,0,2.6,0,4.56-2,4.56-4.61,0-4.13,0-8.26,0-12.4,0-.07,0-.14,0-.21,0-.45.14-.69.47-.78.32-.09.58.06.81.46v13.63Z"/>
      <path class="cls-1" d="M30.89,5.73c-.05.23-.11.46-.16.69-.61,2.34-2.79,3.99-5.14,3.87-2.54-.13-4.56-1.93-4.94-4.39-.42-2.8,1.53-5.44,4.35-5.85.06,0,.11-.04.16-.06.38,0,.76,0,1.15,0,.06.02.11.05.17.05,2.05.3,3.72,1.78,4.24,3.78.07.25.12.5.18.76v1.15ZM25.73,9c2.12,0,3.86-1.72,3.87-3.84.02-2.11-1.75-3.88-3.87-3.88-2.1,0-3.83,1.73-3.85,3.83-.01,2.14,1.71,3.88,3.84,3.89Z"/>
    </g>
  </g>
</svg>