<?xml version="1.0" encoding="UTF-8"?>
<svg id="Capa_2" data-name="Capa 2" xmlns="http://www.w3.org/2000/svg" viewBox="0 0 501.4 24.75">
  <defs>
    <style>
      .cls-1, .cls-2 {
        fill: #fff;
      }

      .cls-2 {
        font-family: TTSupermolotNeue-Regular, 'TT Supermolot Neue';
        font-size: 22px;
      }
    </style>
  </defs>
  <g id="Capa_2-2" data-name="Capa 2">
    <g>
      <text class="cls-2" transform="translate(268 18.7)"><tspan x="0" y="0" xml:space="preserve">I   Soluciones en Energías</tspan></text>
      <g>
        <g>
          <path class="cls-1" d="M68.74,3.63v15.79-.03c0,.15-.01.28-.05.4-.08.33-.26.6-.53.81-.27.2-.57.31-.91.31-.27,0-.53-.07-.77-.22l.05.03-23.57-13.38v13.38h-2.97V4.82c0-.57.24-1,.73-1.29.5-.29.99-.29,1.49-.01l23.56,13.36V3.63h2.97Z"/>
          <path class="cls-1" d="M120.55,3.52h22.02c1.43,0,2.7.45,3.82,1.33,1.37,1.08,2.05,2.6,2.05,4.55,0,1.43-.44,2.71-1.33,3.82-.68.85-1.53,1.44-2.54,1.76l2.8,2.97,1.02,1.07-2.15,2.04-1.02-1.07-3.55-3.76-.89-.96h-17.26v5.47h-2.97v-8.44h22.02c1.13,0,1.95-.4,2.44-1.21.18-.28.3-.6.37-.96.03-.15.05-.28.06-.42.02-.11.03-.22.03-.32,0-1.13-.4-1.95-1.2-2.44-.28-.16-.6-.29-.96-.37-.14-.03-.28-.05-.42-.06-.11-.01-.22-.02-.32-.03h-22.02v-2.97Z"/>
          <path class="cls-1" d="M187.75,10.26v5.83c0,1.29-.45,2.39-1.36,3.29-.9.91-2,1.36-3.29,1.36h-18.19c-1.29,0-2.39-.45-3.29-1.36-.91-.91-1.36-2-1.36-3.29v-7.92c0-1.28.45-2.37,1.36-3.28.9-.92,2-1.38,3.29-1.38h22.84v2.97h-22.84c-.46,0-.86.16-1.19.5-.33.33-.5.73-.5,1.19v7.92c0,.46.16.86.5,1.19.33.33.73.5,1.19.5h18.19c.46,0,.86-.16,1.19-.5.33-.33.5-.73.5-1.19v-5.83h2.97Z"/>
          <path class="cls-1" d="M199.56,3.55h2.97v17.19h-2.97V3.55Z"/>
          <g>
            <rect class="cls-1" y="10.64" width="28.19" height="2.97"/>
            <rect class="cls-1" y="17.77" width="28.19" height="2.97"/>
            <rect class="cls-1" y="3.51" width="28.19" height="2.97"/>
          </g>
          <g>
            <rect class="cls-1" x="80.55" y="10.64" width="28.19" height="2.97"/>
            <rect class="cls-1" x="80.55" y="17.77" width="28.19" height="2.97"/>
            <rect class="cls-1" x="80.55" y="3.51" width="28.19" height="2.97"/>
          </g>
        </g>
        <g>
          <path class="cls-1" d="M227.44,12.64l-1-.54-10.8-5.72-1.31-.68,1.36-2.7,1.31.7,12.67,6.69,12.67-6.69,1.33-.7-16.23,9.65Z"/>
          <path class="cls-1" d="M231.91,11.56l1,.54,10.8,5.72,1.31.68-1.36,2.7-1.31-.7-12.67-6.69-12.67,6.69-1.33.7,16.23-9.65Z"/>
        </g>
      </g>
    </g>
  </g>
</svg>