<?xml version="1.0" encoding="UTF-8"?>
<svg id="Capa_2" data-name="Capa 2" xmlns="http://www.w3.org/2000/svg" viewBox="0 0 94 94">
  <defs>
    <style>
      .cls-1 {
        fill: #454aca;
      }
    </style>
  </defs>
  <g id="Capa_1-2" data-name="Capa 1">
    <path class="cls-1" d="M47,0C21.08,0,0,21.08,0,47s21.08,47,47,47,47-21.08,47-47S72.92,0,47,0ZM47,90.08c-23.75,0-43.08-19.33-43.08-43.08S23.25,3.92,47,3.92s43.08,19.33,43.08,43.08-19.33,43.08-43.08,43.08ZM47,15.67c-17.28,0-31.33,14.06-31.33,31.33s14.06,31.33,31.33,31.33,31.33-14.06,31.33-31.33-14.06-31.33-31.33-31.33ZM52.25,53.91c-1.64-.67-3.41-1.03-5.25-1.03s-3.62.36-5.25,1.03c.18-1.75.03-3.55-.46-5.31-.48-1.72-1.27-3.3-2.3-4.68,1.64-.3,3.22-.93,4.64-1.89,1.36-.92,2.5-2.1,3.37-3.43.87,1.34,2.01,2.51,3.37,3.43,1.42.96,3,1.6,4.64,1.9-1.03,1.38-1.82,2.96-2.3,4.68-.49,1.76-.64,3.56-.46,5.31h0ZM71.64,34.98l-11.41,4.62c-2.57,1.03-5.36.73-7.66-.83-2.3-1.55-3.61-4.03-3.61-6.8v-12.32c9.97.71,18.49,6.77,22.68,15.33h0ZM45.04,19.65v12.32c0,2.77-1.32,5.25-3.61,6.8-2.3,1.55-5.09,1.85-7.63.83l-11.39-4.72c4.21-8.51,12.7-14.53,22.63-15.24h0ZM19.58,47c0-2.96.47-5.81,1.34-8.48l10.49,4.36c3,1.2,5.22,3.67,6.09,6.78.87,3.1.27,6.35-1.65,8.93l-6.91,9.04c-5.74-5.03-9.37-12.41-9.37-20.62h0ZM32.07,69.98l7.1-9.27c1.87-2.49,4.72-3.92,7.83-3.92s5.97,1.43,7.83,3.92l7,9.34c-4.28,2.77-9.37,4.37-14.84,4.37s-10.63-1.63-14.93-4.43ZM64.97,67.69l-6.8-9.07c-1.94-2.58-2.55-5.85-1.68-8.96.87-3.11,3.09-5.58,6.09-6.78l10.52-4.26c.85,2.64,1.31,5.46,1.31,8.39,0,8.25-3.66,15.66-9.45,20.69h0Z"/>
  </g>
</svg>