<?xml version="1.0" encoding="UTF-8"?>
<svg id="Capa_2" data-name="Capa 2" xmlns="http://www.w3.org/2000/svg" viewBox="0 0 100.09 91.91">
  <defs>
    <style>
      .cls-1 {
        fill: #454aca;
      }
    </style>
  </defs>
  <g id="Capa_1-2" data-name="Capa 1">
    <g>
      <path class="cls-1" d="M0,16.83c.17-.75.32-1.51.5-2.26C2.53,6.17,9.65.25,18.41.12c11.36-.16,22.73-.17,34.1,0,9.34.15,16.72,6.81,18.17,16.01.24,1.53.21,3.11.32,4.8h1.01c2.93,0,5.86,0,8.79,0,11.07,0,19.28,8.2,19.28,19.24,0,6.61.02,13.23,0,19.84-.03,6.51-3.02,11.15-8.91,13.93-.12.06-.24.11-.35.17-.05.03-.09.09-.13.14,1.91,6.96.6,11.74-4.18,15.24-4.05,2.97-9.72,3.13-13.97.4-4.85-3.12-6.59-8-5.17-14.68h-34.65c1.67,6.39-.08,11.54-5.8,15-4.28,2.59-9.77,2.15-13.66-1-4.93-4-6.01-9.1-3.9-14.91-1.28-.8-2.63-1.47-3.8-2.38-3.03-2.36-4.84-5.48-5.41-9.3-.02-.15-.11-.3-.16-.44,0-15.12,0-30.24,0-45.36ZM66.71,70.99v-1.09c0-16.87,0-33.74,0-50.62,0-.84,0-1.7-.14-2.53-1.24-7.47-7.12-12.46-14.71-12.47-10.94-.02-21.88,0-32.83,0-.81,0-1.64.02-2.43.15-7.44,1.27-12.42,7.18-12.43,14.77-.02,13.61,0,27.23,0,40.84,0,.91.07,1.83.26,2.71,1.11,4.97,5.25,8.23,10.46,8.23,16.93,0,33.87,0,50.8,0,.29,0,.58,0,1.01,0ZM70.95,70.99c.43,0,.76,0,1.08,0,4.33,0,8.67,0,13,0,6.39,0,10.87-4.48,10.9-10.88.01-3,0-6,0-8.99,0-.31-.04-.62-.06-.92h-24.92v20.8ZM95.92,45.93c0-2.25.07-4.43-.01-6.6-.28-7.12-5.16-12.98-12.18-13.93-4.13-.56-8.38-.21-12.58-.27-.05,0-.1.07-.16.11v20.69h24.93ZM20.82,75.14s0,0,0-.01c-2.12,0-4.23.03-6.35-.02-.56-.01-.8.19-1.03.64-.85,1.69-1.18,3.44-.73,5.3.79,3.3,2.82,5.5,6.09,6.33,3.35.85,6.3-.1,8.49-2.79,2.1-2.59,2.49-5.49,1.1-8.6-.3-.67-.7-.88-1.41-.86-2.05.05-4.1.02-6.15.02ZM79.19,87.65c6.21.02,10.31-6.53,7.41-11.9-.16-.29-.6-.59-.92-.6-4.23-.03-8.46,0-12.69-.03-.66,0-.98.23-1.26.8-2.64,5.37,1.38,11.7,7.46,11.73Z"/>
      <path class="cls-1" d="M35.3,54.47c-6.12-.33-10.77-3.16-13.22-8.92-2.43-5.7-1.39-11.01,2.71-15.7,1.88-2.16,3.7-4.38,5.58-6.54,2.48-2.85,6.82-3.15,9.53-.65.67.61,1.21,1.36,1.81,2.05,1.59,1.85,3.21,3.68,4.76,5.57,3.89,4.75,4.74,10.04,2.19,15.6-2.55,5.57-7.13,8.33-13.35,8.59ZM35.45,50.31c4.35-.21,7.64-2.18,9.45-6.15,1.81-3.97,1.2-7.76-1.59-11.14-1.84-2.24-3.84-4.35-5.6-6.65-1.38-1.8-3.38-1.44-4.52,0-1.8,2.27-3.77,4.41-5.61,6.65-2.77,3.38-3.41,7.16-1.59,11.14,1.82,3.98,5.11,5.92,9.46,6.16Z"/>
    </g>
  </g>
</svg>