<?xml version="1.0" encoding="UTF-8"?>
<svg id="Capa_2" data-name="Capa 2" xmlns="http://www.w3.org/2000/svg" viewBox="0 0 36.6 36.6">
  <defs>
    <style>
      .cls-1 {
        fill: #fff;
      }
    </style>
  </defs>
  <g id="Capa_5" data-name="Capa 5">
    <path class="cls-1" d="M27.93,6.74c-1.19,0-2.15.96-2.15,2.15s.96,2.15,2.15,2.15,2.15-.96,2.15-2.15-.96-2.15-2.15-2.15ZM18.36,9.5c-4.98,0-9.04,4.05-9.04,9.04s4.05,9.04,9.04,9.04,9.04-4.05,9.04-9.04-4.05-9.04-9.04-9.04ZM18.36,24.32c-3.19,0-5.79-2.6-5.79-5.79s2.6-5.79,5.79-5.79,5.79,2.6,5.79,5.79-2.6,5.79-5.79,5.79ZM36.6,11.02c0-6.09-4.94-11.02-11.02-11.02h-14.55C4.94,0,0,4.94,0,11.02v14.55c0,6.09,4.94,11.02,11.02,11.02h14.55c6.09,0,11.02-4.94,11.02-11.02v-14.55ZM33.14,25.57c0,4.18-3.39,7.57-7.57,7.57h-14.55c-4.18,0-7.57-3.39-7.57-7.57v-14.55c0-4.18,3.39-7.57,7.57-7.57h14.55c4.18,0,7.57,3.39,7.57,7.57v14.55Z"/>
  </g>
</svg>