<?xml version="1.0" encoding="UTF-8"?>
<svg id="Capa_2" data-name="Capa 2" xmlns="http://www.w3.org/2000/svg" viewBox="0 0 30.71 29.33">
  <defs>
    <style>
      .cls-1 {
        fill: #fff;
      }
    </style>
  </defs>
  <g id="Capa_5" data-name="Capa 5">
    <g>
      <path class="cls-1" d="M30.71,17.99v10.86c0,.27-.22.49-.49.49h-5.6c-.27,0-.49-.22-.49-.49v-10.1c0-2.66-.95-4.47-3.33-4.47-1.82,0-2.9,1.22-3.37,2.4-.17.42-.22,1.01-.22,1.6v10.56c0,.27-.22.49-.49.49h-5.6c-.27,0-.49-.22-.49-.49.01-2.69.07-15.73.01-18.8,0-.27.21-.49.49-.49h5.59c.27,0,.49.22.49.49v2.32s-.03.04-.04.06h.04v-.06c.87-1.34,2.43-3.27,5.93-3.27,4.33,0,7.57,2.83,7.57,8.9h0ZM.92,29.33h5.6c.27,0,.49-.22.49-.49V10.04c0-.27-.22-.49-.49-.49H.92c-.27,0-.49.22-.49.49v18.81c0,.27.22.49.49.49Z"/>
      <circle class="cls-1" cx="3.52" cy="3.52" r="3.52"/>
    </g>
  </g>
</svg>