<?xml version="1.0" encoding="UTF-8"?>
<svg id="Capa_2" data-name="Capa 2" xmlns="http://www.w3.org/2000/svg" viewBox="0 0 70 70">
  <g id="Capa_5" data-name="Capa 5">
    <g>
      <path d="M56.88,11.67H17.5v-4.38c0-4.02-3.27-7.29-7.29-7.29h-1.46C3.93,0,0,3.93,0,8.75v52.72c0,4.93,3.87,8.53,9.17,8.53h47.71c7.24,0,13.12-5.89,13.12-13.12V24.79c0-7.24-5.89-13.12-13.12-13.12ZM2.92,8.75c0-3.22,2.62-5.83,5.83-5.83h1.46c2.41,0,4.38,1.96,4.38,4.38v40.83c0,2.41-1.96,4.38-4.38,4.38h-1.46c-2.16,0-4.24.8-5.83,2.23V8.75ZM67.08,56.88c0,5.64-4.57,10.21-10.21,10.21H8.75c-3.22,0-5.83-2.61-5.83-5.83s2.61-5.83,5.83-5.83h1.46c4.03,0,7.29-3.26,7.29-7.29V14.58h39.38c5.64,0,10.21,4.57,10.21,10.21v32.08Z"/>
      <path d="M61.25,24.79v32.08c0,2.41-1.96,4.38-4.38,4.38h-29.17c-2.41,0-4.38-1.96-4.38-4.38V24.79c0-2.41,1.96-4.38,4.38-4.38h2.92c.81,0,1.46.65,1.46,1.46s-.65,1.46-1.46,1.46h-2.92c-.8,0-1.46.65-1.46,1.46v7.29h4.38c.81,0,1.46.65,1.46,1.46s-.65,1.46-1.46,1.46h-4.38v21.88c0,.8.66,1.46,1.46,1.46h13.12v-14.58h-4.38c-.81,0-1.46-.65-1.46-1.46s.65-1.46,1.46-1.46h11.67c.8,0,1.46.65,1.46,1.46s-.65,1.46-1.46,1.46h-4.38v14.58h13.12c.8,0,1.46-.65,1.46-1.46V24.79c0-.81-.66-1.46-1.46-1.46h-11.67c-.8,0-1.46.65-1.46,1.46v5.83c0,.81-.65,1.46-1.46,1.46s-1.46-.65-1.46-1.46v-5.83c0-2.41,1.96-4.38,4.38-4.38h11.67c2.41,0,4.38,1.96,4.38,4.38Z"/>
    </g>
  </g>
</svg>