<?xml version="1.0" encoding="UTF-8"?>
<svg id="Capa_2" data-name="Capa 2" xmlns="http://www.w3.org/2000/svg" viewBox="0 0 62.31 74.61">
  <g id="Capa_5" data-name="Capa 5">
    <g>
      <path d="M31.16,74.61c-.24,0-.48-.06-.7-.17l-1.32-.66C22.3,70.36,0,57.61,0,37.02v-16.65c0-6.05,3.87-11.4,9.61-13.3L30.67.08c.32-.11.66-.11.98,0l21.06,6.98c5.75,1.91,9.61,7.26,9.61,13.3v16.65c0,23.36-22.35,34.16-29.2,36.92l-1.37.55c-.19.07-.39.11-.58.11h0ZM31.16,3.2l-20.57,6.82c-4.47,1.48-7.47,5.64-7.47,10.35v16.65c0,18.8,20.98,30.76,27.41,33.97l.7.35.72-.29c6.39-2.57,27.24-12.62,27.24-34.03v-16.65c0-4.71-2.99-8.87-7.46-10.35L31.16,3.2Z"/>
      <path d="M27.99,46.73c-2,0-3.99-.76-5.51-2.28l-9.52-9.05c-.62-.59-.65-1.58-.06-2.2.59-.62,1.58-.65,2.2-.06l9.55,9.08c1.85,1.85,4.81,1.85,6.64.03l17.48-16.88c.62-.6,1.61-.58,2.2.04.6.62.58,1.6-.04,2.2l-17.47,16.87c-1.5,1.5-3.49,2.26-5.48,2.26h0Z"/>
    </g>
  </g>
</svg>