<?xml version="1.0" encoding="UTF-8"?>
<svg id="Capa_2" data-name="Capa 2" xmlns="http://www.w3.org/2000/svg" viewBox="0 0 65 65">
  <defs>
    <style>
      .cls-1 {
        fill: #75f9fb;
      }
    </style>
  </defs>
  <g id="Capa_3" data-name="Capa 3">
    <path class="cls-1" d="M49.77,0C50.02,0,50.28,0,50.53,0c.23.18.48.34.68.54,3.44,3.43,6.88,6.86,10.31,10.31,1.49,1.5,2.5,3.28,3.05,5.32.17.65.29,1.31.43,1.97v32.87c-.04.13-.1.27-.13.4-.69,3.32-3.66,5.6-7.05,5.42-3.26-.17-5.97-2.75-6.29-6.06-.11-1.17-.04-2.37-.09-3.55-.07-1.99-1.49-3.61-3.46-3.85-.94-.11-1.9-.06-2.85-.08-.58,0-1.17,0-1.8,0,0,.35,0,.6,0,.85,0,3,.04,6.01-.02,9.01-.14,6.48-5.48,11.76-11.96,11.8-6.45.04-12.9.04-19.35,0C5.45,64.92.04,59.51.02,52.96-.01,39.32,0,25.68.02,12.04.03,6.62,3.79,1.81,9.02.42,9.65.25,10.29.14,10.93,0c7.15,0,14.3,0,21.45,0,.82.19,1.66.32,2.45.58,5.15,1.64,8.48,6.26,8.49,11.81.01,9.14,0,18.27,0,27.41,0,.26,0,.53,0,.82,1.51,0,2.9-.03,4.29,0,3.3.07,6.14,2.65,6.46,5.93.13,1.28.05,2.58.11,3.86.11,2.2,2.21,3.96,4.39,3.71,2.24-.26,3.71-1.94,3.71-4.31,0-9.18,0-18.36,0-27.54,0-.18-.02-.37-.04-.61-1.25,0-2.45,0-3.65,0-2.76-.01-4.43-1.67-4.43-4.42,0-3.11.01-6.22-.02-9.33,0-.33-.17-.74-.4-.98-1.42-1.48-2.89-2.91-4.34-4.36C48.41,1.56,48.53.7,49.77,0ZM2.74,27.09c-.01.26-.03.47-.03.67,0,8.27,0,16.53,0,24.8,0,.63.04,1.27.16,1.89.9,4.64,4.69,7.8,9.42,7.81,6.26.03,12.52.01,18.78,0,.59,0,1.19-.06,1.76-.17,4.64-.9,7.78-4.71,7.78-9.44,0-8.31,0-16.62,0-24.93,0-.2-.02-.41-.03-.64H2.74ZM40.63,24.33c0-3.99,0-7.93,0-11.86,0-5.64-4.13-9.77-9.77-9.77-6.11,0-12.23,0-18.34,0-.65,0-1.32.03-1.96.15-4.64.88-7.82,4.68-7.85,9.4-.02,3.85,0,7.7,0,11.55,0,.16.02.33.03.53h37.89ZM62.24,18.92c-.07-4.01-2.7-6.35-5.36-8.82,0,2.6-.01,5.09,0,7.57,0,.66.51,1.21,1.15,1.23,1.39.04,2.78.01,4.21.01Z"/>
  </g>
</svg>