<?xml version="1.0" encoding="UTF-8"?>
<svg id="Capa_2" data-name="Capa 2" xmlns="http://www.w3.org/2000/svg" viewBox="0 0 83 83">
  <g id="Capa_5" data-name="Capa 5">
    <path d="M83,43.3c-.95,22.26-19.18,39.7-41.5,39.7-13.97,0-26.63-6.86-34.37-18.37-.11.34-.22.7-.22,1.08v15.56c0,.95-.77,1.73-1.73,1.73s-1.73-.77-1.73-1.73v-15.56c0-3.81,3.1-6.92,6.92-6.92h15.56c.95,0,1.73.77,1.73,1.73s-.77,1.73-1.73,1.73h-15.56c-.21,0-.4.08-.6.12,7.07,10.75,18.79,17.17,31.73,17.17,20.46,0,37.17-15.98,38.04-36.39.04-.93.81-1.66,1.73-1.66h.07c.95.04,1.69.85,1.66,1.8ZM41.5,3.46c12.94,0,24.66,6.42,31.73,17.17-.2.04-.39.12-.6.12h-15.56c-.95,0-1.73.77-1.73,1.73s.77,1.73,1.73,1.73h15.56c3.81,0,6.92-3.1,6.92-6.92V1.73c0-.95-.77-1.73-1.73-1.73s-1.73.77-1.73,1.73v15.56c0,.38-.1.73-.22,1.08C68.13,6.86,55.47,0,41.5,0,19.19,0,.95,17.44,0,39.7c-.04.95.7,1.76,1.66,1.8h.07c.92,0,1.69-.73,1.73-1.66C4.33,19.44,21.04,3.46,41.5,3.46ZM30.51,70.63c3.51,1.32,7.2,2,10.99,2,17.16,0,31.12-13.96,31.12-31.12,0-3.12-.46-6.2-1.37-9.15-.28-.91-1.23-1.43-2.16-1.14-.91.28-1.42,1.25-1.14,2.16.81,2.62,1.22,5.36,1.22,8.14,0,15.25-12.41,27.67-27.67,27.67-3.36,0-6.65-.59-9.76-1.77-.9-.34-1.9.11-2.23,1.01-.34.89.11,1.89,1.01,2.23h0ZM41.5,13.83c3.36,0,6.65.59,9.76,1.77.9.34,1.9-.11,2.23-1.01.34-.89-.11-1.89-1.01-2.23-3.51-1.32-7.2-2-10.99-2-17.16,0-31.12,13.97-31.12,31.13,0,3.12.46,6.2,1.37,9.15.22.74.91,1.22,1.65,1.22.17,0,.34-.02.51-.08.91-.28,1.42-1.25,1.14-2.16-.81-2.62-1.22-5.36-1.22-8.14,0-15.25,12.41-27.67,27.67-27.67h0ZM38.59,31.12h5.82c1.99,0,4,1.07,4,3.46,0,.95.77,1.73,1.73,1.73s1.73-.77,1.73-1.73c0-4.01-3.14-6.92-7.46-6.92h-1.18v-1.73c0-.95-.77-1.73-1.73-1.73s-1.73.77-1.73,1.73v1.73h-1.18c-4.12,0-7.46,3.35-7.46,7.46,0,3.66,2.62,6.76,6.21,7.36l7.74,1.44c1.94.33,3.35,1.99,3.35,3.95,0,2.21-1.8,4-4,4h-5.82c-1.99,0-4-1.07-4-3.46,0-.95-.77-1.73-1.73-1.73s-1.73.77-1.73,1.73c0,4.01,3.14,6.92,7.46,6.92h1.18v1.73c0,.95.77,1.73,1.73,1.73s1.73-.77,1.73-1.73v-1.73h1.18c4.12,0,7.46-3.35,7.46-7.46,0-3.66-2.62-6.76-6.21-7.36l-7.74-1.44c-1.94-.33-3.35-1.99-3.35-3.95,0-2.21,1.8-4,4-4Z"/>
  </g>
</svg>