<?xml version="1.0" encoding="UTF-8"?>
<svg id="Capa_2" data-name="Capa 2" xmlns="http://www.w3.org/2000/svg" viewBox="0 0 35.11 35.11">
  <defs>
    <style>
      .cls-1 {
        fill: #fff;
        fill-rule: evenodd;
      }
    </style>
  </defs>
  <g id="Capa_5" data-name="Capa 5">
    <g>
      <path class="cls-1" d="M17.55,0C7.87,0,0,7.87,0,17.55c0,3.41.97,6.68,2.8,9.51L.14,32.94c-.25.54-.16,1.18.23,1.63.3.35.72.54,1.17.54.14,0,.27-.02.41-.05l7.35-2.02c2.54,1.36,5.38,2.07,8.27,2.07,9.68,0,17.55-7.87,17.55-17.55S27.23,0,17.55,0ZM17.55,32.04c-2.56,0-5.09-.68-7.3-1.97-.24-.14-.5-.21-.77-.21-.14,0-.27.02-.41.05l-4.8,1.32,1.67-3.68c.23-.5.17-1.08-.15-1.53-1.79-2.48-2.73-5.41-2.73-8.46,0-7.99,6.5-14.49,14.49-14.49s14.49,6.5,14.49,14.49-6.5,14.49-14.49,14.49Z"/>
      <path class="cls-1" d="M24.3,20.18c-.74-.44-1.69-.93-2.56-.58-.66.27-1.09,1.31-1.52,1.84-.22.27-.48.32-.82.18-2.49-.99-4.41-2.66-5.78-4.95-.23-.36-.19-.64.09-.97.42-.49.94-1.05,1.05-1.71.11-.66-.2-1.43-.47-2.02-.35-.75-.74-1.82-1.49-2.25-.69-.39-1.6-.17-2.22.33-1.06.87-1.58,2.22-1.56,3.57,0,.38.05.76.14,1.13.21.89.62,1.71,1.09,2.5.35.59.73,1.17,1.13,1.72,1.33,1.81,2.99,3.39,4.92,4.56.96.59,1.99,1.1,3.07,1.46,1.2.4,2.27.81,3.57.56,1.36-.26,2.7-1.1,3.24-2.41.16-.39.24-.82.15-1.23-.18-.85-1.33-1.35-2.01-1.76Z"/>
    </g>
  </g>
</svg>