<?xml version="1.0" encoding="UTF-8"?>
<svg id="Capa_2" data-name="Capa 2" xmlns="http://www.w3.org/2000/svg" viewBox="0 0 66.4 60.97">
  <defs>
    <style>
      .cls-1 {
        fill: #75f9fb;
      }
    </style>
  </defs>
  <g id="Capa_3" data-name="Capa 3">
    <g>
      <path class="cls-1" d="M0,11.17c.11-.5.21-1,.33-1.5C1.68,4.09,6.4.16,12.21.08c7.54-.11,15.08-.12,22.62,0,6.2.1,11.09,4.51,12.05,10.62.16,1.02.14,2.06.21,3.18h.67c1.94,0,3.89,0,5.83,0,7.34,0,12.79,5.44,12.79,12.76,0,4.39.01,8.77,0,13.16-.02,4.32-2,7.4-5.91,9.24-.08.04-.16.07-.23.12-.04.02-.06.06-.09.09,1.27,4.62.4,7.79-2.77,10.11-2.69,1.97-6.45,2.08-9.27.27-3.22-2.07-4.37-5.31-3.43-9.74h-22.99c1.1,4.24-.05,7.66-3.85,9.95-2.84,1.72-6.48,1.43-9.06-.66-3.27-2.65-3.99-6.04-2.59-9.89-.85-.53-1.74-.98-2.52-1.58-2.01-1.57-3.21-3.64-3.59-6.17-.02-.1-.07-.2-.11-.29,0-10.03,0-20.06,0-30.09ZM44.25,47.09v-.72c0-11.19,0-22.39,0-33.58,0-.56,0-1.13-.1-1.68-.82-4.95-4.72-8.27-9.76-8.27-7.26-.01-14.52,0-21.78,0-.54,0-1.09.01-1.61.1C6.07,3.78,2.76,7.7,2.76,12.74c-.01,9.03,0,18.06,0,27.1,0,.6.05,1.22.18,1.8.74,3.3,3.48,5.46,6.94,5.46,11.23,0,22.47,0,33.7,0,.19,0,.38,0,.67,0ZM47.07,47.09c.29,0,.5,0,.71,0,2.87,0,5.75,0,8.62,0,4.24,0,7.21-2.97,7.23-7.22,0-1.99,0-3.98,0-5.97,0-.21-.02-.41-.04-.61h-16.53v13.8ZM63.63,30.47c0-1.49.05-2.94,0-4.38-.19-4.72-3.42-8.61-8.08-9.24-2.74-.37-5.56-.14-8.35-.18-.03,0-.07.05-.11.08v13.72h16.54ZM13.81,49.85s0,0,0,0c-1.4,0-2.81.02-4.21-.01-.37,0-.53.13-.68.43-.57,1.12-.78,2.28-.49,3.51.52,2.19,1.87,3.65,4.04,4.2,2.23.56,4.18-.06,5.63-1.85,1.4-1.72,1.65-3.65.73-5.7-.2-.44-.46-.58-.94-.57-1.36.03-2.72.01-4.08.01ZM52.54,58.15c4.12.02,6.84-4.33,4.91-7.89-.1-.19-.4-.39-.61-.4-2.81-.02-5.61,0-8.42-.02-.44,0-.65.15-.83.53-1.75,3.56.92,7.76,4.95,7.78Z"/>
      <path class="cls-1" d="M23.42,36.13c-4.06-.22-7.14-2.1-8.77-5.92-1.61-3.78-.92-7.3,1.8-10.41,1.25-1.43,2.45-2.9,3.7-4.34,1.65-1.89,4.53-2.09,6.32-.43.44.41.81.9,1.2,1.36,1.06,1.23,2.13,2.44,3.16,3.69,2.58,3.15,3.14,6.66,1.45,10.35-1.69,3.7-4.73,5.53-8.86,5.7ZM23.52,33.38c2.89-.14,5.07-1.45,6.27-4.08,1.2-2.63.8-5.15-1.05-7.39-1.22-1.48-2.55-2.89-3.72-4.41-.91-1.19-2.24-.95-3,0-1.2,1.51-2.5,2.92-3.72,4.41-1.83,2.24-2.26,4.75-1.06,7.39,1.21,2.64,3.39,3.93,6.28,4.09Z"/>
    </g>
  </g>
</svg>