<?xml version="1.0" encoding="UTF-8"?>
<svg id="Capa_2" data-name="Capa 2" xmlns="http://www.w3.org/2000/svg" viewBox="0 0 86.12 93.98">
  <defs>
    <style>
      .cls-1 {
        fill: #454aca;
      }
    </style>
  </defs>
  <g id="Capa_1-2" data-name="Capa 1">
    <path class="cls-1" d="M33.28,66.58c-.4,0-.79-.12-1.14-.36-.88-.63-1.08-1.85-.45-2.73l19.57-27.4c.63-.88,1.85-1.08,2.73-.45.88.63,1.08,1.85.45,2.73l-19.57,27.4c-.38.53-.98.82-1.59.82h0ZM73.76,80.27c8.32-8.32,12.37-17.78,12.37-28.89,0-17.83-19.58-37.11-31.25-47.02h0c-6.85-5.81-16.78-5.81-23.63,0C19.58,14.26,0,33.54,0,51.38c0,11.2,3.83,20.25,12.07,28.48,8.84,8.84,20.43,14.12,31,14.12s21.97-5,30.69-13.72h0ZM52.34,7.34h0c8.98,7.62,29.87,27.17,29.87,44.03,0,10.03-3.67,18.58-11.22,26.13-7.87,7.87-18.31,12.57-27.92,12.57s-20.11-4.85-28.23-12.97c-7.55-7.56-10.92-15.49-10.92-25.72,0-16.87,20.89-36.42,29.87-44.04,2.69-2.28,5.99-3.43,9.28-3.43s6.59,1.14,9.28,3.43ZM27.4,39.18c0,2.16,1.75,3.91,3.91,3.91s3.91-1.75,3.91-3.91-1.75-3.91-3.91-3.91-3.91,1.75-3.91,3.91ZM50.89,62.66c0,2.16,1.75,3.91,3.91,3.91s3.91-1.75,3.91-3.91-1.75-3.91-3.91-3.91-3.91,1.75-3.91,3.91Z"/>
  </g>
</svg>