<?xml version="1.0" encoding="UTF-8"?>
<svg id="Capa_2" data-name="Capa 2" xmlns="http://www.w3.org/2000/svg" viewBox="0 0 92.26 92.26">
  <defs>
    <style>
      .cls-1 {
        fill: #454aca;
      }
    </style>
  </defs>
  <g id="Capa_1-2" data-name="Capa 1">
    <path class="cls-1" d="M70.64,0C71,0,71.36,0,71.72,0c.32.26.68.48.97.77,4.88,4.87,9.77,9.74,14.63,14.63,2.11,2.13,3.55,4.66,4.33,7.56.25.92.41,1.86.61,2.8v46.66c-.06.19-.15.38-.19.57-.98,4.71-5.19,7.95-10.01,7.69-4.62-.24-8.48-3.9-8.93-8.6-.16-1.67-.06-3.36-.12-5.04-.1-2.83-2.11-5.12-4.91-5.46-1.33-.16-2.7-.09-4.04-.11-.83-.01-1.65,0-2.56,0,0,.5,0,.85,0,1.21,0,4.26.06,8.53-.03,12.79-.2,9.2-7.78,16.69-16.98,16.75-9.16.06-18.31.06-27.47,0C7.73,92.15.05,84.47.03,75.17-.02,55.81,0,36.45.03,17.09.04,9.39,5.38,2.57,12.81.59,13.7.36,14.61.2,15.51,0c10.15,0,20.3,0,30.45,0,1.16.27,2.35.46,3.48.82,7.31,2.33,12.04,8.88,12.05,16.76.02,12.97,0,25.94,0,38.9,0,.37,0,.75,0,1.17,2.14,0,4.12-.04,6.1,0,4.69.1,8.71,3.76,9.18,8.42.18,1.82.07,3.66.16,5.49.16,3.13,3.14,5.61,6.23,5.26,3.18-.36,5.26-2.75,5.26-6.11,0-13.03,0-26.06,0-39.08,0-.26-.03-.52-.05-.87-1.77,0-3.47,0-5.18,0-3.92-.02-6.29-2.37-6.29-6.27,0-4.41.02-8.83-.03-13.24,0-.47-.24-1.05-.57-1.39-2.02-2.1-4.1-4.13-6.16-6.19C68.71,2.22,68.88.99,70.64,0ZM3.89,38.46c-.02.37-.04.66-.04.96,0,11.73,0,23.47,0,35.2,0,.9.06,1.81.23,2.68,1.27,6.58,6.65,11.07,13.38,11.09,8.88.04,17.77.02,26.65,0,.84,0,1.68-.08,2.5-.24,6.58-1.28,11.04-6.69,11.05-13.4.01-11.79,0-23.59,0-35.38,0-.29-.03-.58-.04-.91H3.89ZM57.67,34.54c0-5.67,0-11.25,0-16.83,0-8-5.87-13.87-13.87-13.87-8.68,0-17.35,0-26.03,0-.93,0-1.87.05-2.78.22-6.58,1.25-11.09,6.64-11.14,13.34-.04,5.46,0,10.93,0,16.39,0,.23.03.47.04.75h53.78ZM88.35,26.86c-.1-5.7-3.84-9.01-7.61-12.51,0,3.69-.02,7.22.01,10.75,0,.94.72,1.72,1.63,1.74,1.97.06,3.94.02,5.97.02Z"/>
  </g>
</svg>