<?xml version="1.0" encoding="UTF-8"?>
<svg id="Capa_2" data-name="Capa 2" xmlns="http://www.w3.org/2000/svg" viewBox="0 0 16.19 34.86">
  <defs>
    <style>
      .cls-1 {
        fill: #fff;
        fill-rule: evenodd;
      }
    </style>
  </defs>
  <g id="Capa_5" data-name="Capa 5">
    <path class="cls-1" d="M3.57,17.57v16.85c0,.24.2.44.44.44h6.26c.24,0,.44-.2.44-.44v-17.13h4.54c.23,0,.42-.17.44-.4l.44-5.16c.02-.26-.18-.48-.44-.48h-4.97v-3.66c0-.86.7-1.55,1.55-1.55h3.5c.24,0,.44-.2.44-.44V.44c0-.24-.2-.44-.44-.44h-5.91C6.38,0,3.57,2.81,3.57,6.28v4.97H.44c-.24,0-.44.2-.44.44v5.16c0,.24.2.44.44.44h3.13v.27Z"/>
  </g>
</svg>