<?xml version="1.0" encoding="UTF-8"?>
<svg id="Capa_2" data-name="Capa 2" xmlns="http://www.w3.org/2000/svg" viewBox="0 0 64.46 64.4">
  <defs>
    <style>
      .cls-1 {
        fill: #75f9fb;
      }
    </style>
  </defs>
  <g id="Capa_3" data-name="Capa 3">
    <path class="cls-1" d="M64.42,31.46C64.03,14.04,49.74,0,32.23,0S.44,14.04.04,31.46c-.02.06-.08.65,0,.86.06,17.7,14.48,32.08,32.2,32.08s32.13-14.38,32.2-32.08c.07-.21.01-.8,0-.86h0ZM32.23,2.68c11.66,0,21.75,6.79,26.55,16.62l-21.74,4.35c-3.32.66-6.68.66-10,0l-21.39-4.28C10.43,9.51,20.55,2.68,32.23,2.68ZM2.75,33.55l12.21,2.44c2.74.55,5.08,2.28,6.42,4.74l1.67,3.09c.74,1.37,1.13,2.92,1.13,4.47v12.3c-11.96-3.39-20.85-14.16-21.43-27.04h0ZM26.87,61.22v-12.93c0-2-.5-3.99-1.46-5.75l-1.68-3.09c-1.71-3.17-4.72-5.39-8.25-6.09l-12.73-2.55c.14-3.12.78-6.12,1.82-8.92l21.94,4.39c1.83.37,3.68.55,5.52.55s3.69-.18,5.53-.55l22.3-4.46c1.06,2.82,1.7,5.84,1.85,8.99l-12.73,2.55c-3.53.7-6.54,2.92-8.25,6.09l-1.68,3.09c-.95,1.76-1.45,3.75-1.45,5.75v12.93c-1.74.32-3.53.49-5.37.49s-3.63-.17-5.37-.49h0ZM40.28,60.6v-12.3c0-1.55.39-3.1,1.13-4.47l1.68-3.09c1.34-2.46,3.67-4.19,6.42-4.74l12.21-2.44c-.58,12.89-9.47,23.65-21.43,27.04h0Z"/>
  </g>
</svg>