<?xml version="1.0" encoding="UTF-8"?>
<svg id="Capa_2" data-name="Capa 2" xmlns="http://www.w3.org/2000/svg" viewBox="0 0 94 94.01">
  <defs>
    <style>
      .cls-1 {
        fill: #454aca;
      }
    </style>
  </defs>
  <g id="Capa_1-2" data-name="Capa 1">
    <path class="cls-1" d="M93.84,78.21l-4.22-27.42c-.74-4.84-4.05-8.95-8.62-10.71-1-.39-2.14.11-2.53,1.12-.39,1.01.11,2.14,1.12,2.53,3.27,1.26,5.63,4.19,6.16,7.65l2.34,15.2H5.91l2.34-15.2c.53-3.46,2.89-6.4,6.16-7.65,1.01-.39,1.51-1.52,1.12-2.53-.39-1.01-1.53-1.5-2.53-1.12-4.57,1.76-7.88,5.87-8.62,10.71L.16,78.21c-.61,3.96.54,7.97,3.15,11.01,2.61,3.04,6.4,4.78,10.4,4.78h66.58c4,0,7.8-1.74,10.41-4.78,2.6-3.04,3.75-7.05,3.15-11.01h0ZM88.67,70.42v.02s-.02,0,0-.02ZM5.32,70.42s.02.01,0,.02v-.02ZM27.65,90.08h-13.94c-2.86,0-5.57-1.25-7.43-3.42-1.86-2.17-2.68-5.04-2.24-7.86l1.28-8.3h24.8l-2.46,19.58h0ZM31.6,90.08l2.46-19.58h25.88l2.46,19.58h-30.8,0ZM87.72,86.67c-1.86,2.17-4.57,3.42-7.43,3.42h-13.94l-2.46-19.58h24.8l1.28,8.3c.43,2.83-.39,5.69-2.25,7.86h0ZM40.1,57.9c1.91,1.87,4.42,2.8,6.92,2.8s4.94-.91,6.8-2.73l12.56-11.16c5.18-5.18,8.03-12.06,8.03-19.39s-2.86-14.21-8.03-19.39C61.21,2.85,54.33,0,47,0s-14.21,2.85-19.39,8.03c-5.18,5.18-8.03,12.06-8.03,19.39s2.85,14.21,8.12,19.47c0,0,12.4,11.01,12.4,11.01ZM30.38,10.8c4.44-4.44,10.34-6.88,16.62-6.88s12.18,2.44,16.61,6.88c4.44,4.44,6.89,10.34,6.89,16.62s-2.44,12.18-6.8,16.54l-12.55,11.14c-2.29,2.24-6.02,2.24-8.38-.07l-12.39-11c-9.16-9.16-9.16-24.07,0-33.23ZM47,39.09c6.45,0,11.71-5.25,11.71-11.71s-5.26-11.71-11.71-11.71-11.71,5.25-11.71,11.71,5.25,11.71,11.71,11.71ZM47,19.58c4.3,0,7.79,3.5,7.79,7.79s-3.5,7.79-7.79,7.79-7.79-3.5-7.79-7.79,3.5-7.79,7.79-7.79Z"/>
  </g>
</svg>