<?xml version="1.0" encoding="UTF-8"?>
<svg id="Capa_2" data-name="Capa 2" xmlns="http://www.w3.org/2000/svg" viewBox="0 0 1236.78 5.25">
  <defs>
    <style>
      .cls-1 {
        fill: #70ad47;
      }

      .cls-1, .cls-2, .cls-3, .cls-4 {
        fill-rule: evenodd;
      }

      .cls-2 {
        fill: #5b9bd5;
      }

      .cls-3 {
        fill: #ffc000;
      }

      .cls-4 {
        fill: #a5a5a5;
      }
    </style>
  </defs>
  <g id="Capa_7" data-name="Capa 7">
    <g>
      <path class="cls-4" d="M197.59,4.51c.36-.36.73-1.1.73-1.84s-.36-1.47-.73-1.84c-.73-1.1-2.54-1.1-3.64,0-.36.38-.73,1.1-.73,1.84s.36,1.48.73,1.84c.73.38,1.09.74,1.82.74s1.45-.36,1.82-.74M71.81,5.25h0c1.45,0,2.54-1.1,2.54-2.58s-1.09-2.58-2.54-2.58-2.54,1.11-2.54,2.58,1.09,2.58,2.54,2.58M83.08,5.25h0c1.45,0,2.54-1.1,2.54-2.58s-1.09-2.58-2.54-2.58-2.55,1.11-2.55,2.58,1.09,2.58,2.55,2.58M94.35,5.25h0c1.45,0,2.54-1.1,2.54-2.58s-1.09-2.58-2.54-2.58-2.54,1.11-2.54,2.58,1.09,2.58,2.54,2.58M105.62,5.25h0c1.45,0,2.54-1.1,2.54-2.58s-1.09-2.58-2.54-2.58-2.55,1.11-2.55,2.58,1.09,2.58,2.55,2.58M116.89,5.25h0c1.45,0,2.54-1.1,2.54-2.58s-1.09-2.58-2.54-2.58-2.54,1.11-2.54,2.58,1.09,2.58,2.54,2.58M128.16,5.25h0c1.45,0,2.55-1.1,2.55-2.58s-1.09-2.58-2.55-2.58-2.54,1.11-2.54,2.58,1.09,2.58,2.54,2.58M139.43,5.25h0c1.45,0,2.55-1.1,2.55-2.58s-1.09-2.58-2.55-2.58-2.54,1.11-2.54,2.58,1.09,2.58,2.54,2.58M150.7,5.25h0c1.45,0,2.54-1.1,2.54-2.58s-1.09-2.58-2.54-2.58-2.54,1.11-2.54,2.58,1.09,2.58,2.54,2.58M161.96,5.25h0c1.45,0,2.55-1.1,2.55-2.58s-1.09-2.58-2.55-2.58-2.54,1.11-2.54,2.58,1.09,2.58,2.54,2.58M173.23,5.25h0c1.45,0,2.54-1.1,2.54-2.58s-1.09-2.58-2.54-2.58-2.55,1.11-2.55,2.58,1.09,2.58,2.55,2.58M184.5,5.25h0c1.45,0,2.54-1.1,2.54-2.58s-1.09-2.58-2.54-2.58-2.54,1.11-2.54,2.58,1.09,2.58,2.54,2.58M219.59,4.51c.36-.36.73-1.1.73-1.84s-.36-1.47-.73-1.84c-.73-1.1-2.54-1.1-3.64,0-.36.38-.73,1.1-.73,1.84s.36,1.48.73,1.84c.73.38,1.09.74,1.82.74s1.45-.36,1.82-.74M206.5,5.25h0c1.45,0,2.54-1.1,2.54-2.58s-1.09-2.58-2.54-2.58-2.54,1.11-2.54,2.58,1.09,2.58,2.54,2.58M60.55,5.25c-.73,0-1.45-.36-1.82-.74-.36-.36-.73-1.1-.73-1.84s.36-1.47.73-1.84c.73-1.1,2.55-1.1,3.64,0,.36.38.73,1.1.73,1.84s-.36,1.48-.73,1.84c-.73.38-1.09.74-1.82.74M37.81,5.25h0c1.45,0,2.54-1.1,2.54-2.58S39.27.09,37.81.09s-2.54,1.11-2.54,2.58,1.09,2.58,2.54,2.58M49.08,5.25h0c1.45,0,2.54-1.1,2.54-2.58S50.54.09,49.08.09s-2.55,1.11-2.55,2.58,1.09,2.58,2.55,2.58M26.55,5.25c-.73,0-1.45-.36-1.82-.74-.36-.36-.73-1.1-.73-1.84s.36-1.47.73-1.84c.73-1.1,2.55-1.1,3.64,0,.36.38.73,1.1.73,1.84s-.36,1.48-.73,1.84c-.73.38-1.09.74-1.82.74M13.81,5.25h0c1.45,0,2.54-1.1,2.54-2.58S15.27.09,13.81.09s-2.54,1.11-2.54,2.58,1.09,2.58,2.54,2.58M2.55,5.25c-.73,0-1.45-.36-1.82-.74-.36-.36-.73-1.1-.73-1.84S.36,1.2.73.83C1.45-.28,3.27-.28,4.36.83c.36.38.73,1.1.73,1.84s-.36,1.48-.73,1.84c-.73.38-1.09.74-1.82.74"/>
      <path class="cls-4" d="M240.81,5.25h0c1.45,0,2.54-1.1,2.54-2.58s-1.09-2.58-2.54-2.58-2.54,1.11-2.54,2.58,1.09,2.58,2.54,2.58M252.08,5.25h0c1.45,0,2.54-1.1,2.54-2.58s-1.09-2.58-2.54-2.58-2.55,1.11-2.55,2.58,1.09,2.58,2.55,2.58M263.35,5.25h0c1.45,0,2.54-1.1,2.54-2.58s-1.09-2.58-2.54-2.58-2.54,1.11-2.54,2.58,1.09,2.58,2.54,2.58M274.62,5.25h0c1.45,0,2.54-1.1,2.54-2.58s-1.09-2.58-2.54-2.58-2.55,1.11-2.55,2.58,1.09,2.58,2.55,2.58M285.89,5.25h0c1.45,0,2.54-1.1,2.54-2.58s-1.09-2.58-2.54-2.58-2.54,1.11-2.54,2.58,1.09,2.58,2.54,2.58M297.16,5.25h0c1.45,0,2.55-1.1,2.55-2.58s-1.09-2.58-2.55-2.58-2.54,1.11-2.54,2.58,1.09,2.58,2.54,2.58M308.43,5.25h0c1.45,0,2.55-1.1,2.55-2.58s-1.09-2.58-2.55-2.58-2.54,1.11-2.54,2.58,1.09,2.58,2.54,2.58M319.7,5.25h0c1.45,0,2.54-1.1,2.54-2.58s-1.09-2.58-2.54-2.58-2.54,1.11-2.54,2.58,1.09,2.58,2.54,2.58M330.7,5.25h0c1.45,0,2.54-1.1,2.54-2.58s-1.09-2.58-2.54-2.58-2.54,1.11-2.54,2.58,1.09,2.58,2.54,2.58M229.55,5.25c-.73,0-1.45-.36-1.82-.74-.36-.36-.73-1.1-.73-1.84s.36-1.47.73-1.84c.73-1.1,2.55-1.1,3.64,0,.36.38.73,1.1.73,1.84s-.36,1.48-.73,1.84c-.73.38-1.09.74-1.82.74"/>
      <path class="cls-2" d="M358.17,4.51c.36-.36.73-1.1.73-1.84s-.36-1.47-.73-1.84c-.73-1.1-2.54-1.1-3.64,0-.36.38-.73,1.1-.73,1.84s.36,1.48.73,1.84c.73.38,1.09.74,1.82.74s1.45-.36,1.82-.74M367.61,5.25h0c1.45,0,2.55-1.1,2.55-2.58s-1.09-2.58-2.55-2.58-2.53,1.11-2.53,2.58,1.08,2.58,2.53,2.58M345.17,4.51c.36-.36.73-1.1.73-1.84s-.36-1.47-.73-1.84c-.73-1.1-2.54-1.1-3.64,0-.36.38-.73,1.1-.73,1.84s.36,1.48.73,1.84c.73.38,1.09.74,1.82.74s1.45-.36,1.82-.74M378.88,5.25h0c1.45,0,2.54-1.1,2.54-2.58s-1.09-2.58-2.54-2.58-2.54,1.11-2.54,2.58,1.09,2.58,2.54,2.58M390.14,5.25h0c1.45,0,2.55-1.1,2.55-2.58s-1.09-2.58-2.55-2.58-2.53,1.11-2.53,2.58,1.09,2.58,2.53,2.58M401.41,5.25h0c1.45,0,2.54-1.1,2.54-2.58s-1.09-2.58-2.54-2.58-2.55,1.11-2.55,2.58,1.09,2.58,2.55,2.58M412.66,5.25h0c1.45,0,2.54-1.1,2.54-2.58s-1.09-2.58-2.54-2.58-2.53,1.11-2.53,2.58,1.09,2.58,2.53,2.58M423.93,5.25h0c1.45,0,2.54-1.1,2.54-2.58s-1.09-2.58-2.54-2.58-2.55,1.11-2.55,2.58,1.09,2.58,2.55,2.58M435.2,5.25h0c1.44,0,2.53-1.1,2.53-2.58s-1.09-2.58-2.53-2.58-2.54,1.11-2.54,2.58,1.09,2.58,2.54,2.58M446.46,5.25h0c1.45,0,2.54-1.1,2.54-2.58s-1.09-2.58-2.54-2.58c-1.09,0-2.54,1.11-2.54,2.58s1.45,2.58,2.54,2.58M457.73,5.25h0c1.45,0,2.53-1.1,2.53-2.58s-1.08-2.58-2.53-2.58c-1.09,0-2.54,1.11-2.54,2.58s1.45,2.58,2.54,2.58M468.98,5.25h0c1.45,0,2.54-1.1,2.54-2.58s-1.09-2.58-2.54-2.58c-1.09,0-2.54,1.11-2.54,2.58s1.45,2.58,2.54,2.58M489.98,5.25h0c1.45,0,2.54-1.1,2.54-2.58s-1.09-2.58-2.54-2.58c-1.09,0-2.54,1.11-2.54,2.58s1.45,2.58,2.54,2.58M480.25,5.25h0c1.45,0,2.53-1.1,2.53-2.58s-1.08-2.58-2.53-2.58c-1.09,0-2.54,1.11-2.54,2.58s1.45,2.58,2.54,2.58M510.98,5.25h0c1.45,0,2.54-1.1,2.54-2.58s-1.09-2.58-2.54-2.58c-1.09,0-2.54,1.11-2.54,2.58s1.45,2.58,2.54,2.58M501.25,5.25h0c1.45,0,2.53-1.1,2.53-2.58s-1.08-2.58-2.53-2.58c-1.09,0-2.54,1.11-2.54,2.58s1.45,2.58,2.54,2.58"/>
      <path class="cls-2" d="M539.17,4.51c.36-.36.73-1.1.73-1.84s-.36-1.47-.73-1.84c-.73-1.1-2.54-1.1-3.64,0-.36.38-.73,1.1-.73,1.84s.36,1.48.73,1.84c.73.38,1.09.74,1.82.74s1.45-.36,1.82-.74M548.61,5.25h0c1.45,0,2.55-1.1,2.55-2.58s-1.09-2.58-2.55-2.58-2.53,1.11-2.53,2.58,1.08,2.58,2.53,2.58M526.17,4.51c.36-.36.73-1.1.73-1.84s-.36-1.47-.73-1.84c-.73-1.1-2.54-1.1-3.64,0-.36.38-.73,1.1-.73,1.84s.36,1.48.73,1.84c.73.38,1.09.74,1.82.74s1.45-.36,1.82-.74M559.88,5.25h0c1.45,0,2.54-1.1,2.54-2.58s-1.09-2.58-2.54-2.58-2.54,1.11-2.54,2.58,1.09,2.58,2.54,2.58M571.14,5.25h0c1.45,0,2.55-1.1,2.55-2.58s-1.09-2.58-2.55-2.58-2.53,1.11-2.53,2.58,1.09,2.58,2.53,2.58M582.41,5.25h0c1.45,0,2.54-1.1,2.54-2.58s-1.09-2.58-2.54-2.58-2.55,1.11-2.55,2.58,1.09,2.58,2.55,2.58M593.66,5.25h0c1.45,0,2.54-1.1,2.54-2.58s-1.09-2.58-2.54-2.58-2.53,1.11-2.53,2.58,1.09,2.58,2.53,2.58M604.93,5.25h0c1.45,0,2.54-1.1,2.54-2.58s-1.09-2.58-2.54-2.58-2.55,1.11-2.55,2.58,1.09,2.58,2.55,2.58M616.2,5.25h0c1.44,0,2.53-1.1,2.53-2.58s-1.09-2.58-2.53-2.58-2.54,1.11-2.54,2.58,1.09,2.58,2.54,2.58"/>
      <path class="cls-1" d="M783.5,4.51c.36-.36.73-1.1.73-1.84s-.36-1.47-.73-1.84c-1.09-1.1-2.91-1.1-3.64,0-.36.38-.73,1.1-.73,1.84s.36,1.48.73,1.84c.36.38,1.09.74,1.82.74s1.09-.36,1.82-.74M657.78,5.25h0c1.09,0,2.54-1.1,2.54-2.58s-1.45-2.58-2.54-2.58c-1.45,0-2.54,1.11-2.54,2.58s1.09,2.58,2.54,2.58M625.78,5.25h0c1.09,0,2.54-1.1,2.54-2.58s-1.45-2.58-2.54-2.58c-1.45,0-2.54,1.11-2.54,2.58s1.09,2.58,2.54,2.58M635.78,5.25h0c1.09,0,2.54-1.1,2.54-2.58s-1.45-2.58-2.54-2.58c-1.45,0-2.54,1.11-2.54,2.58s1.09,2.58,2.54,2.58M669.05,5.25h0c1.09,0,2.54-1.1,2.54-2.58s-1.45-2.58-2.54-2.58c-1.45,0-2.54,1.11-2.54,2.58s1.09,2.58,2.54,2.58M680.31,5.25h0c1.09,0,2.54-1.1,2.54-2.58s-1.46-2.58-2.54-2.58c-1.45,0-2.53,1.11-2.53,2.58s1.08,2.58,2.53,2.58M691.58,5.25h0c1.09,0,2.54-1.1,2.54-2.58s-1.45-2.58-2.54-2.58c-1.45,0-2.54,1.11-2.54,2.58s1.09,2.58,2.54,2.58M702.84,5.25h0c1.09,0,2.54-1.1,2.54-2.58s-1.45-2.58-2.54-2.58c-1.44,0-2.53,1.11-2.53,2.58s1.09,2.58,2.53,2.58M714.1,5.25h0c1.45,0,2.54-1.1,2.54-2.58s-1.09-2.58-2.54-2.58-2.54,1.11-2.54,2.58,1.09,2.58,2.54,2.58M725.37,5.25h0c1.44,0,2.53-1.1,2.53-2.58s-1.09-2.58-2.53-2.58-2.54,1.11-2.54,2.58,1.09,2.58,2.54,2.58M736.63,5.25h0c1.45,0,2.54-1.1,2.54-2.58s-1.09-2.58-2.54-2.58-2.54,1.11-2.54,2.58,1.09,2.58,2.54,2.58M747.9,5.25h0c1.44,0,2.53-1.1,2.53-2.58s-1.09-2.58-2.53-2.58-2.54,1.11-2.54,2.58,1.09,2.58,2.54,2.58M759.16,5.25h0c1.45,0,2.54-1.1,2.54-2.58s-1.09-2.58-2.54-2.58-2.54,1.11-2.54,2.58,1.09,2.58,2.54,2.58M770.42,5.25h0c1.45,0,2.53-1.1,2.53-2.58s-1.08-2.58-2.53-2.58-2.54,1.11-2.54,2.58,1.09,2.58,2.54,2.58M806.5,4.51c.36-.36.73-1.1.73-1.84s-.36-1.47-.73-1.84c-1.09-1.1-2.91-1.1-3.64,0-.36.38-.73,1.1-.73,1.84s.36,1.48.73,1.84c.36.38,1.09.74,1.82.74s1.09-.36,1.82-.74M793.42,5.25h0c1.45,0,2.53-1.1,2.53-2.58s-1.08-2.58-2.53-2.58-2.54,1.11-2.54,2.58,1.09,2.58,2.54,2.58M646.16,5.25c-.36,0-1.09-.36-1.45-.74-.73-.36-1.09-1.1-1.09-1.84s.36-1.47,1.09-1.84c.73-1.1,2.54-1.1,3.27,0,.73.38.73,1.1.73,1.84s0,1.48-.73,1.84c-.36.38-1.09.74-1.82.74"/>
      <path class="cls-1" d="M847.78,5.25h0c1.09,0,2.54-1.1,2.54-2.58s-1.45-2.58-2.54-2.58c-1.45,0-2.54,1.11-2.54,2.58s1.09,2.58,2.54,2.58M815.78,5.25h0c1.09,0,2.54-1.1,2.54-2.58s-1.45-2.58-2.54-2.58c-1.45,0-2.54,1.11-2.54,2.58s1.09,2.58,2.54,2.58M825.78,5.25h0c1.09,0,2.54-1.1,2.54-2.58s-1.45-2.58-2.54-2.58c-1.45,0-2.54,1.11-2.54,2.58s1.09,2.58,2.54,2.58M859.05,5.25h0c1.09,0,2.54-1.1,2.54-2.58s-1.45-2.58-2.54-2.58c-1.45,0-2.54,1.11-2.54,2.58s1.09,2.58,2.54,2.58M870.31,5.25h0c1.09,0,2.54-1.1,2.54-2.58s-1.46-2.58-2.54-2.58c-1.45,0-2.53,1.11-2.53,2.58s1.08,2.58,2.53,2.58M881.58,5.25h0c1.09,0,2.54-1.1,2.54-2.58s-1.45-2.58-2.54-2.58c-1.45,0-2.54,1.11-2.54,2.58s1.09,2.58,2.54,2.58M892.84,5.25h0c1.09,0,2.54-1.1,2.54-2.58s-1.45-2.58-2.54-2.58c-1.44,0-2.53,1.11-2.53,2.58s1.09,2.58,2.53,2.58M904.1,5.25h0c1.45,0,2.54-1.1,2.54-2.58s-1.09-2.58-2.54-2.58-2.54,1.11-2.54,2.58,1.09,2.58,2.54,2.58M836.16,5.25c-.36,0-1.09-.36-1.45-.74-.73-.36-1.09-1.1-1.09-1.84s.36-1.47,1.09-1.84c.73-1.1,2.54-1.1,3.27,0,.73.38.73,1.1.73,1.84s0,1.48-.73,1.84c-.36.38-1.09.74-1.82.74"/>
      <path class="cls-3" d="M919.22,4.51c.36-.36.73-1.1.73-1.84s-.36-1.47-.73-1.84c-1.09-1.1-2.91-1.1-3.64,0-.36.38-.73,1.1-.73,1.84s.36,1.48.73,1.84c.36.38,1.09.74,1.82.74s1.09-.36,1.82-.74M928.66,5.25h0c1.45,0,2.54-1.1,2.54-2.58s-1.09-2.58-2.54-2.58-2.54,1.11-2.54,2.58,1.09,2.58,2.54,2.58M939.92,5.25h0c1.45,0,2.55-1.1,2.55-2.58s-1.09-2.58-2.55-2.58-2.54,1.11-2.54,2.58,1.09,2.58,2.54,2.58M951.18,5.25h0c1.45,0,2.54-1.1,2.54-2.58s-1.09-2.58-2.54-2.58-2.54,1.11-2.54,2.58,1.09,2.58,2.54,2.58M962.43,5.25h0c1.45,0,2.54-1.1,2.54-2.58s-1.09-2.58-2.54-2.58-2.54,1.11-2.54,2.58,1.09,2.58,2.54,2.58M973.69,5.25h0c1.45,0,2.54-1.1,2.54-2.58s-1.09-2.58-2.54-2.58-2.55,1.11-2.55,2.58,1.09,2.58,2.55,2.58M984.95,5.25h0c1.45,0,2.54-1.1,2.54-2.58s-1.09-2.58-2.54-2.58-2.54,1.11-2.54,2.58,1.09,2.58,2.54,2.58M996.2,5.25h0c1.45,0,2.55-1.1,2.55-2.58s-1.09-2.58-2.55-2.58-2.54,1.11-2.54,2.58,1.09,2.58,2.54,2.58M1007.46,5.25h0c1.45,0,2.54-1.1,2.54-2.58s-1.09-2.58-2.54-2.58-2.54,1.11-2.54,2.58,1.09,2.58,2.54,2.58M1018.72,5.25h0c1.45,0,2.54-1.1,2.54-2.58s-1.09-2.58-2.54-2.58-2.55,1.11-2.55,2.58,1.09,2.58,2.55,2.58M1029.97,5.25h0c1.45,0,2.54-1.1,2.54-2.58s-1.09-2.58-2.54-2.58-2.54,1.11-2.54,2.58,1.09,2.58,2.54,2.58M1041.23,5.25h0c1.45,0,2.55-1.1,2.55-2.58s-1.09-2.58-2.55-2.58-2.54,1.11-2.54,2.58,1.09,2.58,2.54,2.58M1052.49,5.25c-.73,0-1.09-.36-1.82-.74-.36-.36-.73-1.1-.73-1.84s.36-1.47.73-1.84c1.09-1.1,2.91-1.1,3.64,0,.36.38.73,1.1.73,1.84s-.36,1.48-.73,1.84c-.36.38-1.09.74-1.82.74"/>
      <path class="cls-3" d="M1066.22,4.51c.36-.36.73-1.1.73-1.84s-.36-1.47-.73-1.84c-1.09-1.1-2.91-1.1-3.64,0-.36.38-.73,1.1-.73,1.84s.36,1.48.73,1.84c.36.38,1.09.74,1.82.74s1.09-.36,1.82-.74M1075.66,5.25h0c1.45,0,2.54-1.1,2.54-2.58s-1.09-2.58-2.54-2.58-2.54,1.11-2.54,2.58,1.09,2.58,2.54,2.58M1086.92,5.25h0c1.45,0,2.55-1.1,2.55-2.58s-1.09-2.58-2.55-2.58-2.54,1.11-2.54,2.58,1.09,2.58,2.54,2.58M1098.18,5.25h0c1.45,0,2.54-1.1,2.54-2.58s-1.09-2.58-2.54-2.58-2.54,1.11-2.54,2.58,1.09,2.58,2.54,2.58M1109.43,5.25h0c1.45,0,2.54-1.1,2.54-2.58s-1.09-2.58-2.54-2.58-2.54,1.11-2.54,2.58,1.09,2.58,2.54,2.58M1120.69,5.25h0c1.45,0,2.54-1.1,2.54-2.58s-1.09-2.58-2.54-2.58-2.55,1.11-2.55,2.58,1.09,2.58,2.55,2.58M1131.95,5.25h0c1.45,0,2.54-1.1,2.54-2.58s-1.09-2.58-2.54-2.58-2.54,1.11-2.54,2.58,1.09,2.58,2.54,2.58M1143.2,5.25h0c1.45,0,2.55-1.1,2.55-2.58s-1.09-2.58-2.55-2.58-2.54,1.11-2.54,2.58,1.09,2.58,2.54,2.58M1154.46,5.25h0c1.45,0,2.54-1.1,2.54-2.58s-1.09-2.58-2.54-2.58-2.54,1.11-2.54,2.58,1.09,2.58,2.54,2.58M1165.72,5.25h0c1.45,0,2.54-1.1,2.54-2.58s-1.09-2.58-2.54-2.58-2.55,1.11-2.55,2.58,1.09,2.58,2.55,2.58M1176.97,5.25h0c1.45,0,2.54-1.1,2.54-2.58s-1.09-2.58-2.54-2.58-2.54,1.11-2.54,2.58,1.09,2.58,2.54,2.58M1188.23,5.25h0c1.45,0,2.55-1.1,2.55-2.58s-1.09-2.58-2.55-2.58-2.54,1.11-2.54,2.58,1.09,2.58,2.54,2.58M1200.46,5.25h0c1.45,0,2.54-1.1,2.54-2.58s-1.09-2.58-2.54-2.58-2.54,1.11-2.54,2.58,1.09,2.58,2.54,2.58M1211.72,5.25h0c1.45,0,2.54-1.1,2.54-2.58s-1.09-2.58-2.54-2.58-2.55,1.11-2.55,2.58,1.09,2.58,2.55,2.58M1222.97,5.25h0c1.45,0,2.54-1.1,2.54-2.58s-1.09-2.58-2.54-2.58-2.54,1.11-2.54,2.58,1.09,2.58,2.54,2.58M1234.23,5.25h0c1.45,0,2.55-1.1,2.55-2.58s-1.09-2.58-2.55-2.58-2.54,1.11-2.54,2.58,1.09,2.58,2.54,2.58"/>
    </g>
  </g>
</svg>