<?xml version="1.0" encoding="UTF-8"?>
<svg id="Capa_2" data-name="Capa 2" xmlns="http://www.w3.org/2000/svg" viewBox="0 0 354.3 66.28">
  <defs>
    <style>
      .cls-1, .cls-2 {
        fill: #fff;
      }

      .cls-3 {
        letter-spacing: -.01em;
      }

      .cls-2 {
        font-size: 25.98px;
      }

      .cls-4 {
        letter-spacing: 0em;
      }
    </style>
  </defs>
  <g id="Capa_5" data-name="Capa 5">
    <g>
      <text class="cls-2" transform="translate(0 59.14)"><tspan x="0" y="0">Soluciones en Ene</tspan><tspan class="cls-3" x="207.57" y="0">r</tspan><tspan class="cls-4" x="216.11" y="0">gías</tspan></text>
      <g>
        <g>
          <path class="cls-1" d="M99.39.92v22.83-.05c0,.21-.02.41-.07.58-.12.48-.37.87-.76,1.17-.39.3-.82.44-1.31.44-.39,0-.76-.1-1.12-.31l.07.05L62.13,6.28v19.34h-4.29V2.64c0-.82.35-1.44,1.05-1.86.72-.42,1.43-.42,2.15-.02l34.07,19.32V.92h4.29Z"/>
          <path class="cls-1" d="M174.31.76h31.84c2.07,0,3.91.64,5.52,1.92,1.98,1.57,2.97,3.76,2.97,6.57,0,2.07-.64,3.92-1.92,5.53-.98,1.24-2.21,2.09-3.67,2.54l4.05,4.29,1.48,1.55-3.11,2.95-1.48-1.55-5.14-5.43-1.29-1.38h-24.96v7.91h-4.29v-12.21h31.84c1.64,0,2.82-.58,3.53-1.75.25-.4.43-.86.54-1.38.04-.21.07-.41.09-.61.03-.16.04-.32.04-.47,0-1.64-.58-2.81-1.74-3.53-.4-.24-.87-.42-1.39-.53-.21-.05-.41-.07-.6-.09-.16-.02-.32-.03-.47-.05h-31.84V.76Z"/>
          <path class="cls-1" d="M271.47,10.51v8.43c0,1.86-.65,3.45-1.97,4.76-1.31,1.31-2.9,1.97-4.76,1.97h-26.3c-1.86,0-3.45-.65-4.76-1.97-1.31-1.31-1.97-2.9-1.97-4.76V7.49c0-1.85.65-3.43,1.97-4.74,1.31-1.33,2.9-1.99,4.76-1.99h33.02v4.29h-33.02c-.67,0-1.25.24-1.72.72-.48.48-.72,1.05-.72,1.72v11.45c0,.67.24,1.25.72,1.72.47.48,1.05.72,1.72.72h26.3c.67,0,1.25-.24,1.72-.72.48-.48.72-1.05.72-1.72v-8.43h4.29Z"/>
          <path class="cls-1" d="M288.55.81h4.29v24.86h-4.29V.81Z"/>
          <g>
            <rect class="cls-1" y="11.07" width="40.76" height="4.29"/>
            <rect class="cls-1" y="21.38" width="40.76" height="4.29"/>
            <rect class="cls-1" y=".76" width="40.76" height="4.29"/>
          </g>
          <g>
            <rect class="cls-1" x="116.47" y="11.07" width="40.76" height="4.29"/>
            <rect class="cls-1" x="116.47" y="21.38" width="40.76" height="4.29"/>
            <rect class="cls-1" x="116.47" y=".76" width="40.76" height="4.29"/>
          </g>
        </g>
        <g>
          <path class="cls-1" d="M328.87,13.95l-1.45-.78-15.62-8.27-1.9-.99,1.97-3.91,1.9,1.01,18.32,9.68,18.33-9.68,1.92-1.01-23.47,13.95Z"/>
          <path class="cls-1" d="M335.33,12.39l1.45.78,15.62,8.27,1.9.99-1.97,3.91-1.9-1.01-18.32-9.68-18.33,9.68-1.92,1.01,23.47-13.95Z"/>
        </g>
      </g>
    </g>
  </g>
</svg>