<?xml version="1.0" encoding="UTF-8"?>
<svg id="Capa_2" data-name="Capa 2" xmlns="http://www.w3.org/2000/svg" viewBox="0 0 30.89 30.9">
  <defs>
    <style>
      .cls-1 {
        fill: aqua;
      }
    </style>
  </defs>
  <g id="Capa_5" data-name="Capa 5">
    <g>
      <path class="cls-1" d="M0,5.2c.08-.34.14-.68.24-1.02C.94,1.75,3.18.03,5.72.02c3.42-.01,6.83,0,10.25,0,.46,0,.75.25.75.64,0,.4-.27.64-.74.64-.91,0-1.83,0-2.74,0-.11,0-.22,0-.35,0,0,.13-.02.22-.02.32,0,3.79,0,7.58,0,11.37,0,.16.08.35.19.46,2.32,2.33,4.64,4.66,6.97,6.97.09.09.25.17.38.17,2.99,0,5.97,0,8.96,0,.06,0,.12,0,.23-.02,0-.12,0-.23,0-.35,0-1.77,0-3.54,0-5.31,0-.45.21-.71.58-.74.36-.03.65.21.7.56.01.08,0,.16,0,.24,0,3.36,0,6.71,0,10.07,0,2.75-1.8,5.03-4.46,5.69-.24.06-.49.11-.73.16H5.19c-.06-.02-.11-.04-.17-.05-2.43-.42-4.03-1.8-4.79-4.15-.1-.32-.16-.66-.23-.99,0-6.84,0-13.67,0-20.51ZM12.06,14.34s-.05.02-.07.03c-3.5,1.75-7,3.5-10.5,5.25-.18.09-.21.2-.21.38,0,1.68,0,3.36,0,5.03,0,.29.02.58.07.87.43,2.24,2.24,3.72,4.56,3.72,2.38,0,4.76,0,7.14,0,.23,0,.36-.08.49-.26,1.35-1.97,2.72-3.93,4.08-5.9.49-.71.98-1.42,1.46-2.1-2.35-2.35-4.68-4.68-7.03-7.03ZM1.3,18.26c.12-.05.21-.09.29-.13,3.23-1.62,6.46-3.23,9.7-4.84.21-.11.3-.22.3-.47,0-3.72,0-7.44,0-11.16v-.34c-.1,0-.17-.02-.23-.02-1.86,0-3.72,0-5.58,0-.26,0-.52.03-.78.08-2.2.43-3.7,2.23-3.71,4.49,0,4.03,0,8.06,0,12.09,0,.09,0,.17.02.3ZM14.97,29.6c.07.01.09.02.11.02,3.37,0,6.74.03,10.1-.01,2.18-.02,4-1.53,4.32-3.69.19-1.29.08-2.63.1-3.94,0-.02-.02-.03-.04-.06-.07,0-.15-.01-.23-.01-2.94,0-5.87,0-8.81,0-.21,0-.3.09-.41.24-1.66,2.4-3.32,4.79-4.97,7.19-.06.08-.11.16-.18.27Z"/>
      <path class="cls-1" d="M16.73,7c.16-3.6,2.6-6.35,6-6.91,3.92-.65,7.69,2.22,8.11,6.18.25,2.37-.52,4.37-2.26,6-.79.74-1.59,1.48-2.4,2.2-1.35,1.22-3.33,1.25-4.69.04-.89-.79-1.79-1.59-2.64-2.43-1.46-1.43-2.14-3.2-2.12-5.08ZM18.02,7.07c.02,1.66.63,3.07,1.84,4.21.77.72,1.55,1.43,2.33,2.14.99.9,2.25.91,3.23,0,.78-.71,1.56-1.42,2.33-2.15,1.5-1.42,2.08-3.16,1.76-5.19-.44-2.79-3.1-5.11-6.37-4.75-2.86.32-5.14,2.78-5.12,5.73Z"/>
      <path class="cls-1" d="M23.8,4.53c1.42,0,2.57,1.12,2.58,2.55,0,1.42-1.13,2.58-2.54,2.59-1.43.01-2.6-1.15-2.6-2.57,0-1.42,1.14-2.56,2.56-2.57ZM23.8,5.81c-.7,0-1.28.59-1.28,1.29,0,.7.58,1.28,1.28,1.29.71,0,1.3-.59,1.29-1.31,0-.7-.59-1.27-1.29-1.27Z"/>
    </g>
  </g>
</svg>