<?xml version="1.0" encoding="UTF-8"?>
<svg id="Capa_2" data-name="Capa 2" xmlns="http://www.w3.org/2000/svg" xmlns:xlink="http://www.w3.org/1999/xlink" viewBox="0 0 849.5 1523">
  <defs>
    <style>
      .cls-1 {
        fill: #fff;
      }

      .cls-2 {
        font-size: 27.96px;
      }

      .cls-2, .cls-3, .cls-4 {
        fill: #182453;
      }

      .cls-5 {
        fill: none;
      }

      .cls-6, .cls-7 {
        fill: #ab33f4;
      }

      .cls-8 {
        fill: #75f9fb;
      }

      .cls-7 {
        font-size: 28.32px;
      }

      .cls-4 {
        font-size: 43.05px;
      }

      .cls-9 {
        opacity: .96;
      }

      .cls-10 {
        clip-path: url(#clippath);
      }
    </style>
    <clipPath id="clippath">
      <rect class="cls-5" y="0" width="849.5" height="1523"/>
    </clipPath>
  </defs>
  <g id="Capa_1-2" data-name="Capa 1">
    <g class="cls-10">
      <g>
        <g class="cls-9">
          <text class="cls-7" transform="translate(525.38 1322.82)"><tspan x="0" y="0"> </tspan></text>
          <path class="cls-6" d="M390.73,1091.09c-.24-.26-.37-.51-.49-.77l.49.77Z"/>
          <path class="cls-6" d="M414.04,1011.26c2.85,0,5.87.65,8.31,1.98l.04.02.16.1,43.92,24.62c2.49,1.41,4.69,3.6,6.11,6.06,1.51,2.5,2.41,5.4,2.41,8.22v49.26c0,2.73-.86,5.64-2.28,8.16-1.43,2.49-3.5,4.73-6.12,6.15l-33.57,18.88c-4.32,2.38-9.7.97-12.14-3.13-2.44-4.12-1.06-9.38,3.18-11.76l33.16-18.59v-48.59l-43.19-24.2-.12.1-32.23,18.05c-4.24,2.36-9.61.95-12.06-3.17-2.44-4.1-.98-9.34,3.26-11.72l32.19-18.05.41-.26c2.53-1.41,5.54-2.12,8.56-2.14"/>
          <path class="cls-6" d="M416.45,989.97l-.04-.02c-.53-.3-1.38-.42-2.36-.42-1.06,0-1.95.16-2.48.48h.04l-59.73,33.51c-4.24,2.38-9.66.97-12.14-3.14-2.4-4.1-.98-9.36,3.26-11.74l59.73-33.51v.02l.04-.02c3.26-1.82,7.29-2.75,11.29-2.77,3.91,0,7.99.89,11.29,2.73l73.79,41.41c3.1,1.72,5.78,4.41,7.74,7.48.08.18.24.37.33.57,2.04,3.33,3.22,7.17,3.22,10.89v82.79c0,3.62-1.1,7.5-3.06,10.87-1.91,3.32-4.68,6.27-7.98,8.16l-.08-.02v.02l-49.58,27.81c-4.28,2.36-9.62.95-12.1-3.17-2.36-4.1-.98-9.34,3.3-11.7l49.59-27.83c.49-.28.98-.87,1.42-1.62.45-.83.78-1.74.78-2.51v-82.79c0-.67-.33-1.49-.78-2.26l-.16-.36c-.45-.63-.98-1.17-1.51-1.47l-73.79-41.39Z"/>
          <path class="cls-6" d="M418.93,951.55c-1.26-.61-3.06-.93-4.89-.93h-.08c-1.95.02-3.91.41-5.21,1.15l-.49.28-63.48,35.57c-4.16,2.36-9.53.93-11.98-3.17-2.44-4.12-.98-9.36,3.26-11.72l63.32-35.57.49-.26c4.03-2.28,9.13-3.42,14.1-3.45,4.69-.02,9.49.99,13.41,3.03.24.1.45.22.69.34l103.74,58.17c4.08,2.31,7.58,5.94,10.06,10.07,2.49,4.14,3.95,8.93,3.95,13.54v116.34c0,4.51-1.47,9.36-3.83,13.58-2.36,4.14-5.78,7.82-9.9,10.12v-.02l-.04.02-61.57,34.54c-4.2,2.36-9.65.95-12.02-3.17-2.49-4.1-.98-9.34,3.22-11.72l61.57-34.52-.04-.02c1.26-.71,2.4-2.02,3.3-3.58.98-1.7,1.59-3.56,1.59-5.22v-116.34c0-1.56-.61-3.32-1.59-4.93-.98-1.64-2.24-3.03-3.67-3.8l-103.66-58.17-.24-.16Z"/>
          <path class="cls-6" d="M421.62,913.27c-2.04-1.05-4.77-1.56-7.66-1.54-2.97.02-5.91.61-8.03,1.8l-.53.26-80.64,45.25c-4.2,2.36-9.66.95-12.02-3.17-2.48-4.1-.98-9.34,3.22-11.72l80.64-45.23.45-.28c4.81-2.69,10.92-4.06,16.87-4.08,5.71-.02,11.53,1.19,16.26,3.66.2.1.41.22.57.34l133.64,74.94c4.93,2.77,9.13,7.13,12.06,12.08,3.02,4.99,4.73,10.73,4.73,16.21v149.89c0,5.4-1.63,11.2-4.56,16.27-2.77,4.99-6.93,9.38-11.82,12.11v-.02.02l-93.14,52.21-.37.2c-.2.14-.45.26-.61.38l-12.63,7.07c-4.16,2.37-9.61.97-12.02-3.15-2.48-4.1-1.02-9.36,3.22-11.74l12.59-7.07c.2-.12.37-.24.65-.33l.36-.24,93.07-52.19v-.02c2.03-1.15,3.91-3.17,5.26-5.56,1.42-2.55,2.32-5.38,2.32-7.94v-149.89c0-2.45-.9-5.15-2.32-7.58-1.51-2.5-3.46-4.59-5.62-5.82l-133.69-74.96-.24-.16Z"/>
          <path class="cls-6" d="M424.31,874.97c-2.77-1.46-6.52-2.18-10.39-2.16-4.03.02-7.99.85-10.88,2.45l-95.95,53.84c-4.28,2.36-9.61.95-12.1-3.17-2.36-4.1-.98-9.34,3.3-11.72l96-53.82c5.54-3.13,12.67-4.73,19.64-4.77,6.68-.02,13.49,1.42,18.95,4.33.24.1.45.2.65.32l163.47,91.72c5.71,3.21,10.68,8.29,14.14,14.07,3.46,5.82,5.5,12.49,5.5,18.86v183.46c0,6.28-1.95,13.04-5.34,18.98-3.38,5.78-8.11,10.89-13.73,14.07v-.02l-.04.02-119.99,67.32c-4.24,2.36-9.7.93-12.06-3.17-2.44-4.12-.97-9.36,3.26-11.72l119.95-67.3v-.02c2.81-1.59,5.3-4.34,7.13-7.54,1.95-3.41,3.06-7.2,3.06-10.63v-183.46c0-3.35-1.14-6.97-3.06-10.23-1.99-3.32-4.69-6.15-7.62-7.82l-163.55-91.72-.33-.2Z"/>
          <path class="cls-6" d="M427,836.68c-3.5-1.88-8.23-2.8-13.08-2.79-5.05.02-9.98,1.07-13.65,3.13l-.49.26-103.82,58.22c-4.24,2.36-9.61.93-12.06-3.17-2.4-4.12-.98-9.36,3.26-11.72l103.82-58.21.41-.27c6.36-3.56,14.47-5.39,22.49-5.42,7.7-.03,15.52,1.61,21.76,4.97.24.1.45.2.65.31l193.42,108.5c6.48,3.66,12.1,9.46,16.01,16.07,3.91,6.65,6.36,14.27,6.36,21.54v216.99c0,7.18-2.28,14.92-6.19,21.69-3.75,6.61-9.17,12.43-15.64,16.05l-133.61,74.96c-4.28,2.35-9.66.95-12.1-3.17-2.41-4.12-.98-9.36,3.3-11.72l133.6-74.96c3.59-2,6.68-5.46,9.05-9.52,2.4-4.24,3.83-9.03,3.83-13.34v-216.99c0-4.24-1.47-8.81-3.91-12.91-2.44-4.16-5.87-7.7-9.57-9.82l-193.42-108.5-.41-.21Z"/>
          <path class="cls-6" d="M439.02,783.74l.45.27,222.39,124.75.49.26c7.09,4,13.28,10.33,17.68,17.61l.32.48c4.44,7.46,7.13,16.03,7.13,24.19v250.54c0,8.06-2.57,16.76-6.93,24.38-4.27,7.46-10.39,14-17.52,18.03h-.04l-139.11,78.03c-4.24,2.36-9.61.93-12.06-3.17-2.4-4.12-.98-9.36,3.26-11.72l139.07-78c4.36-2.45,8.15-6.63,10.96-11.5,2.89-5.11,4.65-10.85,4.65-16.05v-250.54c0-5.13-1.8-10.65-4.73-15.58l-.24-.45c-2.93-4.77-6.85-8.87-11.33-11.36l-.41-.28-222.47-124.73-.45-.26c-4.36-2.45-10.31-3.66-16.22-3.63-6.07.02-12.06,1.3-16.5,3.78h0s-115.39,64.76-115.39,64.76c-4.24,2.37-9.7.97-12.1-3.13-2.48-4.12-1.02-9.38,3.22-11.76l115.39-64.74h0s.08,0,.08,0c7.09-3.99,16.21-6.05,25.22-6.08,8.92-.03,18.05,1.92,25.18,5.92"/>
          <path class="cls-6" d="M432.87,760.35c-5.13-2.88-11.98-4.29-18.99-4.27-7.09.02-14.06,1.53-19.31,4.45l-.45.26-131.4,73.71c-4.24,2.36-9.62.94-12.06-3.17-2.44-4.11-.98-9.36,3.26-11.72l131.36-73.69.41-.27c7.91-4.43,18.09-6.7,28.12-6.73h.04c9.9-.03,19.92,2.13,27.83,6.55l252.83,141.77.45.28c8.11,4.55,15.12,11.8,20.05,20.09,4.93,8.3,7.9,17.8,7.9,26.84v284.09c0,8.95-2.85,18.63-7.74,27.12-4.73,8.27-11.41,15.52-19.39,19.99h-.08l-146.68,82.28c-4.2,2.36-9.62.95-12.02-3.17-2.4-4.12-.94-9.36,3.22-11.72l146.68-82.26c5.14-2.89,9.62-7.8,12.88-13.48,3.42-5.96,5.42-12.67,5.42-18.76v-284.09c0-6.02-2.08-12.47-5.5-18.23-3.46-5.82-8.23-10.8-13.61-13.83l-.41-.26-252.79-141.78Z"/>
          <path class="cls-6" d="M444.44,707.21l.49.27,282.2,158.28.49.26c8.88,5.01,16.58,12.97,22,22.09,5.42,9.14,8.72,19.57,8.72,29.51v317.64c0,9.84-3.14,20.49-8.47,29.81-5.21,9.1-12.63,17.08-21.39,21.99v-.02.02l-154.14,86.44c-4.2,2.36-9.61.95-12.02-3.17-2.49-4.12-.98-9.36,3.22-11.72l154.1-86.42v-.02c5.91-3.31,11.04-8.93,14.75-15.44,3.91-6.81,6.19-14.49,6.19-21.47v-317.64c0-6.91-2.36-14.31-6.27-20.88-3.95-6.65-9.41-12.37-15.57-15.84l-.49-.28-282.12-158.28-.57-.26c-5.87-3.32-13.77-4.94-21.76-4.92-8.07.03-15.97,1.76-22,5.11l-.53.26-138.25,77.55c-4.24,2.36-9.61.94-12.06-3.17-2.41-4.11-.98-9.36,3.26-11.71l138.25-77.55.45-.27c8.64-4.86,19.84-7.36,30.88-7.4,10.92-.03,22,2.34,30.64,7.2"/>
          <path class="cls-6" d="M438.37,683.82c-6.64-3.75-15.61-5.58-24.57-5.55-9.13.03-18.17,1.98-24.94,5.77l-153.98,86.41c-4.24,2.36-9.66.94-12.06-3.17-2.48-4.11-.98-9.36,3.26-11.71l153.98-86.41c9.45-5.3,21.68-8.02,33.66-8.06h.04c11.94-.04,24,2.55,33.41,7.84l299.36,167.92c4.24,2.36,5.71,7.61,3.34,11.71-2.48,4.12-7.82,5.54-12.14,3.17l-299.36-167.91Z"/>
          <path class="cls-6" d="M612.64,1391.78c-4.24,2.36-9.62.93-12.06-3.17-2.45-4.12-.98-9.36,3.25-11.71l148.48-83.31v-.02c6.72-3.74,12.51-10.07,16.7-17.42,4.4-7.66,6.93-16.31,6.93-24.17v-351.19c0-7.42-2.36-15.36-6.4-22.51-4.11-7.28-9.86-13.66-16.42-17.84-4.12-2.61-5.22-7.94-2.61-11.91,2.73-3.98,8.19-5.1,12.3-2.5,9,5.74,16.79,14.29,22.25,23.95,5.38,9.62,8.64,20.45,8.64,30.8v351.19c0,10.71-3.38,22.33-9.21,32.52-5.71,9.91-13.77,18.62-23.31,23.95l-148.56,83.33Z"/>
          <path class="cls-6" d="M440.69,645.31c-7.42-4.02-17.11-5.99-26.97-5.95-10.02.04-20.05,2.2-27.58,6.43l-.53.26-176.67,99.1c-4.24,2.36-9.61.94-12.06-3.17-2.4-4.1-.97-9.36,3.26-11.71l176.67-99.09.49-.27c10.19-5.73,23.39-8.67,36.42-8.71,12.71-.04,25.55,2.66,35.69,8.19l.53.29,292.22,163.91c4.24,2.38,5.66,7.64,3.22,11.75-2.44,4.11-7.86,5.51-12.1,3.13l-292.19-163.9-.41-.24Z"/>
          <path class="cls-6" d="M648.49,1411.46c-4.24,2.37-9.66.99-12.06-3.13-2.49-4.1-1.06-9.36,3.18-11.74l145.46-81.61.45-.24c7.21-4.2,13.57-11.12,18.17-19.16,4.85-8.51,7.78-18.13,7.78-26.88v-364.55c0-1.53.33-2.97,1.06-4.2-.73-1.25-1.06-2.67-1.06-4.2v-3.48c0-4.75,3.91-8.61,8.8-8.61s8.88,3.86,8.88,8.61v3.48c0,1.52-.41,2.95-1.06,4.2.65,1.23,1.06,2.67,1.06,4.2v364.55c0,11.6-3.71,24.19-10.02,35.21-6.03,10.55-14.59,19.83-24.69,25.63l-.49.3-145.46,81.61Z"/>
          <path class="cls-6" d="M443.83,607.27c-8.27-4.61-19.11-6.86-30.07-6.82-11.12.04-22.21,2.43-30.48,7.07h.04s-192.73,108.1-192.73,108.1c-4.24,2.38-9.62.97-12.06-3.13-2.48-4.11-1.06-9.37,3.22-11.75l192.68-108.09v.02l.04-.02c11-6.16,25.14-9.32,39.2-9.38,13.98-.05,27.99,2.96,38.99,9.11l230.9,129.51.37.26,5.22,2.89c4.24,2.36,5.7,7.6,3.26,11.71-2.45,4.11-7.83,5.53-12.06,3.17l-5.13-2.89-.53-.27-230.86-129.51Z"/>
          <path class="cls-6" d="M679.66,1433.73c-4.28,2.36-9.66.95-12.1-3.17-2.41-4.1-.98-9.36,3.3-11.72l146.97-82.46c8.23-4.59,15.32-12.37,20.49-21.38,5.34-9.36,8.52-19.93,8.52-29.59v-381.25c0-4.77,3.95-8.63,8.84-8.63s8.88,3.86,8.88,8.63v381.25c0,12.51-3.99,26.05-10.8,37.94-6.6,11.56-16.05,21.69-27.14,27.91l-146.97,82.46Z"/>
          <path class="cls-6" d="M446.15,568.76c-8.92-4.87-20.62-7.25-32.43-7.21-12.14.04-24.2,2.65-33.25,7.73h0s-204.71,114.84-204.71,114.84c-4.24,2.38-9.66.98-12.14-3.13-2.4-4.11-.98-9.37,3.26-11.75l204.7-114.83h.04s0,0,0,0c11.78-6.6,26.93-9.99,42.01-10.03h.04c14.71-.06,29.54,3.08,41.23,9.47l.53.27,220.92,123.93c4.24,2.38,5.62,7.64,3.22,11.75-2.48,4.11-7.86,5.51-12.1,3.13l-220.93-123.92-.41-.25Z"/>
          <path class="cls-6" d="M720.12,1450.79c-4.2,2.4-9.61.99-12.06-3.13-2.45-4.1-1.02-9.36,3.18-11.74l139.35-78.14.45-.24c8.76-5.07,16.38-13.44,21.88-23.1,5.87-10.23,9.33-21.77,9.33-32.3v-399.62c0-4.75,3.95-8.61,8.88-8.61s8.84,3.86,8.84,8.61v399.62c0,13.38-4.28,27.91-11.57,40.64-7.01,12.21-16.83,22.9-28.52,29.59l-.45.3-139.31,78.12Z"/>
          <path class="cls-6" d="M448.88,530.5c-9.7-5.31-22.41-7.91-35.25-7.86-13.12.05-26.16,2.88-36.02,8.41l-224.88,126.13c-4.24,2.36-9.66.94-12.06-3.17-2.41-4.1-.98-9.36,3.26-11.71l224.88-126.13c12.55-7.03,28.69-10.64,44.82-10.69,15.73-.06,31.54,3.28,44.01,10.11l.49.28,229.56,128.75c4.24,2.38,5.7,7.64,3.18,11.75-2.4,4.11-7.82,5.51-12.02,3.13l-229.6-128.75-.37-.25Z"/>
          <path class="cls-6" d="M758.67,1468.92c-4.24,2.36-9.62.95-12.06-3.17-2.41-4.1-.98-9.34,3.25-11.71l133.45-74.84c9.78-5.46,18.21-14.66,24.28-25.33,6.32-11.06,10.06-23.57,10.06-34.99v-440.51c0-4.75,3.99-8.61,8.88-8.61s8.88,3.86,8.88,8.61v440.51c0,14.27-4.56,29.75-12.34,43.34-7.58,13.2-18.3,24.76-30.97,31.87l-133.44,74.84Z"/>
          <path class="cls-6" d="M452.02,492.47c-10.51-5.91-24.41-8.79-38.42-8.74-14.14.05-28.16,3.1-38.79,9.05v.02l-247.28,138.71c-4.24,2.38-9.7.98-12.1-3.13-2.49-4.11-.98-9.37,3.22-11.75l247.32-138.71h0s0,0,0,0c13.32-7.46,30.56-11.29,47.63-11.35,16.95-.06,34.02,3.57,47.3,11.03l252.7,141.75c4.24,2.38,5.62,7.64,3.22,11.75-2.49,4.1-7.87,5.5-12.1,3.13l-252.7-141.75Z"/>
          <path class="cls-6" d="M799.33,1485.88c-4.24,2.36-9.61.95-12.06-3.17-2.45-4.1-.98-9.36,3.26-11.72l125.58-70.4c10.43-5.9,19.56-15.82,26.16-27.32,6.76-11.91,10.76-25.39,10.76-37.71v-347.66c0-4.77,3.99-8.63,8.88-8.63s8.97,3.86,8.97,8.63v347.66c0,15.16-4.89,31.61-13.2,46.06-7.99,14.03-19.4,26.32-32.76,33.85l-125.58,70.4Z"/>
          <path class="cls-6" d="M463.63,439.32l.45.27,278.86,156.42c4.24,2.36,5.7,7.61,3.26,11.72-2.44,4.11-7.82,5.52-12.06,3.16l-278.86-156.43-.48-.26c-11.33-6.34-26.2-9.44-41.2-9.38h-.04c-15.15.06-30.19,3.34-41.64,9.73l-283.67,159.14c-4.24,2.36-9.61.94-12.06-3.17-2.44-4.11-.98-9.36,3.26-11.72l283.67-159.14c14.18-7.89,32.27-11.94,50.36-12.01h.08c17.97-.06,36.1,3.79,50.08,11.67"/>
          <path class="cls-6" d="M828.67,1509.2c-4.2,2.37-9.61.97-12.06-3.13-2.45-4.12-1.02-9.38,3.18-11.76l128.96-72.32.45-.26c11.17-6.35,20.74-16.89,27.71-29.02,7.25-12.79,11.61-27.22,11.61-40.42v-365.7c0-4.75,3.95-8.61,8.84-8.61s8.88,3.86,8.88,8.61v365.7c0,16.05-5.13,33.47-13.85,48.77-8.44,14.67-20.29,27.53-34.23,35.51l-.53.3-128.96,72.32Z"/>
          <path class="cls-6" d="M457.52,415.93c-12.1-6.78-27.99-10.09-44.01-10.02-16.17.06-32.19,3.56-44.37,10.39l-.49.26L54.5,592.77c-4.24,2.36-9.61.94-12.06-3.16-2.4-4.1-.98-9.36,3.26-11.72l314.15-176.2.41-.27c14.91-8.34,34.14-12.61,53.25-12.68,18.95-.07,38.1,3.99,52.89,12.32l275.64,154.61c4.2,2.38,5.62,7.64,3.18,11.75-2.45,4.11-7.87,5.51-12.06,3.13l-275.64-154.61Z"/>
          <path class="cls-6" d="M459.84,377.42c-12.79-7.04-29.5-10.47-46.33-10.41-17.15.06-34.23,3.78-47.22,11.03h0s-109.03,61.2-109.03,61.2c-4.24,2.38-9.66.97-12.14-3.13-2.4-4.1-.98-9.37,3.26-11.75l109.03-61.18h.08s0,0,0,0c15.65-8.77,35.86-13.26,55.98-13.34,19.72-.07,39.6,4.11,55.13,12.67l.53.28,288.76,161.99c4.2,2.38,5.71,7.64,3.22,11.75-2.44,4.11-7.82,5.51-12.06,3.13l-288.8-162-.41-.25Z"/>
          <path class="cls-6" d="M185.22,459.8c4.24-2.36,9.66-.94,12.06,3.16,2.44,4.11.98,9.36-3.26,11.72l-126.8,71.13c-4.24,2.36-9.62.94-12.06-3.16-2.44-4.11-.98-9.36,3.26-11.72l126.8-71.13Z"/>
          <path class="cls-6" d="M462.93,339.39c-13.61-7.64-31.46-11.37-49.46-11.3-18.17.07-36.27,4.01-50.04,11.71l-84.42,47.38c-4.24,2.36-9.61.94-12.06-3.17-2.44-4.11-.98-9.36,3.26-11.72l84.43-47.37c16.46-9.2,37.69-13.92,58.84-13.99,20.94-.08,42.05,4.4,58.35,13.58l294.18,165c4.24,2.38,5.66,7.64,3.18,11.75-2.4,4.11-7.82,5.51-12.02,3.13l-294.22-165Z"/>
          <path class="cls-6" d="M166.88,430.23c4.24-2.37,9.61-.97,12.1,3.13,2.4,4.1,1.02,9.37-3.22,11.75l-133.4,74.8c-4.2,2.37-9.61.97-12.06-3.13-2.45-4.11-.98-9.37,3.22-11.75l133.36-74.8Z"/>
          <path class="cls-6" d="M465.3,300.88c-6.27-3.44-13.37-6.12-21.03-8.05-8.23-2.09-17.03-3.27-25.91-3.56-4.89-.14-8.72-4.11-8.56-8.85.12-4.73,4.24-8.45,9.04-8.31,10.27.34,20.37,1.7,29.87,4.09,9.08,2.29,17.68,5.55,25.39,9.78l.49.28,328.21,184.09c4.24,2.38,5.66,7.65,3.22,11.75-2.44,4.11-7.86,5.51-12.1,3.12l-328.21-184.09-.4-.26Z"/>
          <path class="cls-6" d="M98.02,429.06c4.24-2.36,9.61-.94,12.06,3.17,2.41,4.11.98,9.36-3.26,11.71l-2.04,1.13h0s-.16.1-.16.1l-67.6,37.91c-4.28,2.36-9.61.94-12.1-3.17-2.36-4.11-.9-9.35,3.3-11.71l67.6-37.91h0s.16-.1.16-.1l2.04-1.13Z"/>
          <path class="cls-6" d="M468.48,262.86c-1.47-.8-2.73-1.48-3.91-2.05-1.39-.67-2.77-1.3-4.15-1.88-4.48-1.88-6.52-6.93-4.61-11.28,1.96-4.35,7.13-6.35,11.61-4.47,1.8.73,3.43,1.49,5.06,2.28,1.75.86,3.34,1.7,4.77,2.48l.08.04,359.05,201.4c4.2,2.38,5.7,7.64,3.22,11.75-2.44,4.11-7.9,5.51-12.06,3.13l-359.05-201.41Z"/>
          <path class="cls-6" d="M120.35,376.67c4.24-2.38,9.66-.98,12.06,3.13,2.48,4.11,1.06,9.37-3.18,11.75l-101.05,56.71c-4.32,2.37-9.7.97-12.14-3.13-2.44-4.11-1.06-9.37,3.18-11.75l101.13-56.71Z"/>
          <path class="cls-6" d="M108.37,343.61c4.2-2.36,9.53-.94,12.02,3.16,2.41,4.11.98,9.36-3.22,11.72l-7.99,4.42c-.65.4-1.43.69-2.2.88-.53.56-1.18,1.05-1.95,1.46l-14.1,7.94c-4.24,2.36-9.66.94-12.06-3.16-2.45-4.11-.98-9.36,3.26-11.72l14.1-7.94c.78-.4,1.51-.69,2.28-.88.57-.56,1.22-1.06,1.87-1.46l7.99-4.42Z"/>
          <path class="cls-6" d="M882.86,435.64c4.2,2.38,5.62,7.64,3.22,11.75-2.48,4.11-7.86,5.51-12.1,3.13l-387.16-217.19c-4.32-2.38-5.7-7.64-3.26-11.75s7.82-5.51,12.1-3.13l387.2,217.19Z"/>
          <path class="cls-6" d="M935.42,425.35c4.28,2.38,5.7,7.64,3.26,11.75-2.44,4.11-7.86,5.51-12.14,3.13l-415.44-233.05c-4.24-2.38-5.66-7.64-3.18-11.75,2.44-4.11,7.82-5.51,12.06-3.13l415.44,233.04Z"/>
          <path class="cls-6" d="M1001.23,422.46c4.24,2.36,5.66,7.6,3.26,11.71-2.4,4.11-7.82,5.53-12.02,3.17l-16.87-9.45c-1.06-.59-1.96-1.35-2.65-2.24-1.1-.14-2.32-.5-3.38-1.1l-445.1-249.7c-4.24-2.37-5.7-7.64-3.22-11.75,2.4-4.11,7.86-5.51,12.1-3.13l445.1,249.7c1.06.59,1.96,1.37,2.69,2.26,1.06.13,2.2.49,3.26,1.07l16.83,9.45Z"/>
          <path class="cls-6" d="M964.51,362.03c4.16,2.38,5.66,7.64,3.18,11.75-2.41,4.11-7.82,5.51-12.06,3.13l-185.47-104.04-.49-.28-4.89-2.76c-4.24-2.36-5.7-7.61-3.26-11.72,2.4-4.11,7.82-5.52,12.02-3.17l5.01,2.79.49.26,185.47,104.04Z"/>
          <path class="cls-6" d="M744,238.35c4.24,2.38,5.71,7.64,3.22,11.75-2.49,4.11-7.87,5.51-12.02,3.13l-190.36-106.75c-4.24-2.38-5.71-7.64-3.22-11.75,2.41-4.11,7.87-5.51,12.1-3.13l190.28,106.75Z"/>
          <path class="cls-6" d="M984.07,333.23c4.24,2.38,5.7,7.64,3.26,11.75-2.44,4.11-7.91,5.51-12.1,3.13l-147.09-82.52c-4.28-2.38-5.66-7.64-3.22-11.75,2.44-4.1,7.82-5.51,12.1-3.12l147.05,82.51Z"/>
          <path class="cls-6" d="M712.71,181.01c4.24,2.38,5.7,7.64,3.22,11.75-2.49,4.11-7.87,5.51-12.02,3.13l-177.85-99.73c-4.2-2.38-5.66-7.64-3.22-11.75,2.44-4.11,7.82-5.51,12.1-3.13l177.77,99.73Z"/>
          <path class="cls-6" d="M601.96,79.08c4.24,2.37,5.7,7.64,3.26,11.75-2.53,4.11-7.91,5.51-12.14,3.13l-12.71-7.14c-3.1-1.73-4.65-4.97-4.36-8.19-2.73,1.85-6.4,2.12-9.49.41l-11.98-6.74c-4.24-2.36-5.7-7.61-3.26-11.72,2.4-4.1,7.82-5.52,12.06-3.17l11.98,6.74c3.1,1.71,4.72,4.96,4.44,8.18,2.73-1.85,6.4-2.13,9.49-.4l12.72,7.14Z"/>
        </g>
        <path class="cls-1" d="M418.6,1105h-4.25c-.13-.04-.27-.1-.41-.13-3.53-.72-6.38-2.52-8.45-5.46-2.24-3.18-4.48-6.38-6.6-9.65-2.77-4.27-5.26-8.7-7.11-13.45-1.12-2.87-2-5.79-1.95-8.91.08-5.19,1.55-9.96,4.38-14.32,5.87-9.05,17.26-13.84,27.68-11.43,10.41,2.41,17.19,8.85,20.25,19.09,1.18,3.96,1.36,7.99.21,12.02-.84,2.93-2.02,5.73-3.39,8.45-3.35,6.6-7.46,12.71-11.85,18.65-1.62,2.19-3.78,3.68-6.36,4.54-.71.23-1.43.4-2.15.6ZM405.81,1067.61c-.03,5.89,4.72,10.67,10.66,10.71,5.8.04,10.63-4.75,10.66-10.59.03-5.91-4.7-10.74-10.54-10.77-5.98-.03-10.75,4.68-10.78,10.64Z"/>
        <path class="cls-1" d="M553.34,1339h-4.25c-.13-.04-.27-.1-.41-.13-3.53-.72-6.38-2.52-8.45-5.46-2.24-3.18-4.48-6.38-6.6-9.65-2.77-4.27-5.26-8.7-7.11-13.45-1.12-2.87-2-5.79-1.95-8.91.08-5.19,1.55-9.96,4.38-14.32,5.87-9.05,17.26-13.84,27.68-11.43,10.41,2.41,17.19,8.85,20.25,19.09,1.18,3.96,1.36,7.99.21,12.02-.84,2.93-2.02,5.73-3.39,8.45-3.35,6.6-7.46,12.71-11.85,18.65-1.62,2.19-3.78,3.68-6.36,4.54-.71.23-1.43.4-2.15.6ZM540.55,1301.61c-.03,5.89,4.72,10.67,10.66,10.71,5.8.04,10.63-4.75,10.66-10.59.03-5.91-4.7-10.74-10.54-10.77-5.98-.03-10.75,4.68-10.78,10.64Z"/>
        <path class="cls-1" d="M842.91,1476h-4.25c-.13-.04-.27-.1-.41-.13-3.53-.72-6.38-2.52-8.45-5.46-2.24-3.18-4.48-6.38-6.6-9.65-2.77-4.27-5.26-8.7-7.11-13.45-1.12-2.87-2-5.79-1.95-8.91.08-5.19,1.55-9.96,4.38-14.32,5.87-9.05,17.26-13.84,27.68-11.43,10.41,2.41,17.19,8.85,20.25,19.09,1.18,3.96,1.36,7.99.21,12.02-.84,2.93-2.02,5.73-3.39,8.45-3.35,6.6-7.46,12.71-11.85,18.65-1.62,2.19-3.78,3.68-6.36,4.54-.71.23-1.43.4-2.15.6ZM830.12,1438.61c-.03,5.89,4.72,10.67,10.66,10.71,5.8.04,10.63-4.75,10.66-10.59.03-5.91-4.7-10.74-10.54-10.77-5.98-.03-10.75,4.68-10.78,10.64Z"/>
        <path class="cls-1" d="M876.47,1182h-4.25c-.13-.04-.27-.1-.41-.13-3.53-.72-6.38-2.52-8.45-5.46-2.24-3.18-4.48-6.38-6.6-9.65-2.77-4.27-5.26-8.7-7.11-13.45-1.12-2.87-2-5.79-1.95-8.91.08-5.19,1.55-9.96,4.38-14.32,5.87-9.05,17.26-13.84,27.68-11.43,10.41,2.41,17.19,8.85,20.25,19.09,1.18,3.96,1.36,7.99.21,12.02-.84,2.93-2.02,5.73-3.39,8.45-3.35,6.6-7.46,12.71-11.85,18.65-1.62,2.19-3.78,3.68-6.36,4.54-.71.23-1.43.4-2.15.6ZM863.68,1144.61c-.03,5.89,4.72,10.67,10.66,10.71,5.8.04,10.63-4.75,10.66-10.59.03-5.91-4.7-10.74-10.54-10.77-5.98-.03-10.75,4.68-10.78,10.64Z"/>
        <path class="cls-1" d="M253.46,733h-4.25c-.13-.04-.27-.1-.41-.13-3.53-.72-6.38-2.52-8.45-5.46-2.24-3.18-4.48-6.38-6.6-9.65-2.77-4.27-5.26-8.7-7.11-13.45-1.12-2.87-2-5.79-1.95-8.91.08-5.19,1.55-9.96,4.38-14.32,5.87-9.05,17.26-13.84,27.68-11.43,10.41,2.41,17.19,8.85,20.25,19.09,1.18,3.96,1.36,7.99.21,12.02-.84,2.93-2.02,5.73-3.39,8.45-3.35,6.6-7.46,12.71-11.85,18.65-1.62,2.19-3.78,3.68-6.36,4.54-.71.23-1.43.4-2.15.6ZM240.68,695.61c-.03,5.89,4.72,10.67,10.66,10.71,5.8.04,10.63-4.75,10.66-10.59.03-5.91-4.7-10.74-10.54-10.77-5.98-.03-10.75,4.68-10.78,10.64Z"/>
        <path class="cls-1" d="M145.57,634h-4.25c-.13-.04-.27-.1-.41-.13-3.53-.72-6.38-2.52-8.45-5.46-2.24-3.18-4.48-6.38-6.6-9.65-2.77-4.27-5.26-8.7-7.11-13.45-1.12-2.87-2-5.79-1.95-8.91.08-5.19,1.55-9.96,4.38-14.32,5.87-9.05,17.26-13.84,27.68-11.43,10.41,2.41,17.19,8.85,20.25,19.09,1.18,3.96,1.36,7.99.21,12.02-.84,2.93-2.02,5.73-3.39,8.45-3.35,6.6-7.46,12.71-11.85,18.65-1.62,2.19-3.78,3.68-6.36,4.54-.71.23-1.43.4-2.15.6ZM132.79,596.61c-.03,5.89,4.72,10.67,10.66,10.71,5.8.04,10.63-4.75,10.66-10.59.03-5.91-4.7-10.74-10.54-10.77-5.98-.03-10.75,4.68-10.78,10.64Z"/>
        <path class="cls-1" d="M53.26,549h-4.25c-.13-.04-.27-.1-.41-.13-3.53-.72-6.38-2.52-8.45-5.46-2.24-3.18-4.48-6.38-6.6-9.65-2.77-4.27-5.26-8.7-7.11-13.45-1.12-2.87-2-5.79-1.95-8.91.08-5.19,1.55-9.96,4.38-14.32,5.87-9.05,17.26-13.84,27.68-11.43,10.41,2.41,17.19,8.85,20.25,19.09,1.18,3.96,1.36,7.99.21,12.02-.84,2.93-2.02,5.73-3.39,8.45-3.35,6.6-7.46,12.71-11.85,18.65-1.62,2.19-3.78,3.68-6.36,4.54-.71.23-1.43.4-2.15.6ZM40.48,511.61c-.03,5.89,4.72,10.67,10.66,10.71,5.8.04,10.63-4.75,10.66-10.59.03-5.91-4.7-10.74-10.54-10.77-5.98-.03-10.75,4.68-10.78,10.64Z"/>
        <g>
          <g>
            <path class="cls-3" d="M411.15,1015.73v19.85c0,.95.87,1.67,1.8,1.49l103.89-19.85c1.81-.35,1.56-3.01-.28-3.01h-103.89c-.84,0-1.52.68-1.52,1.52Z"/>
            <g>
              <path class="cls-3" d="M76.04,454.11v19.85c0,.95.87,1.67,1.8,1.49l103.89-19.85c1.81-.35,1.56-3.01-.28-3.01h-103.89c-.84,0-1.52.68-1.52,1.52Z"/>
              <path class="cls-3" d="M165.39,547.41v19.85c0,.95.87,1.67,1.8,1.49l103.9-19.85c1.81-.35,1.56-3.01-.28-3.01h-103.9c-.84,0-1.52.68-1.52,1.52Z"/>
              <path class="cls-3" d="M272.96,648.96v19.85c0,.95.87,1.67,1.8,1.49l103.89-19.85c1.81-.35,1.56-3.01-.28-3.01h-103.89c-.84,0-1.52.68-1.52,1.52Z"/>
            </g>
          </g>
          <g>
            <rect class="cls-8" x="286.44" y="959.51" width="243.32" height="54.7" rx="16.96" ry="16.96"/>
            <g>
              <rect class="cls-8" x="25.54" y="397.89" width="171.8" height="54.7" rx="16.96" ry="16.96"/>
              <rect class="cls-8" x="88.26" y="491.19" width="198.5" height="54.7" rx="16.96" ry="16.96"/>
              <rect class="cls-8" x="193.08" y="592.74" width="198.49" height="54.7" rx="16.96" ry="16.96"/>
              <rect class="cls-8" x="818.21" y="1045.48" width="198.49" height="54.7" rx="16.96" ry="16.96"/>
              <rect class="cls-8" x="797.42" y="1340.5" width="198.49" height="54.7" rx="16.96" ry="16.96"/>
            </g>
          </g>
          <text class="cls-2" transform="translate(74.79 434.74) scale(1.18 1)"><tspan x="0" y="0">Piura</tspan></text>
          <text class="cls-2" transform="translate(124.45 528.04) scale(1.18 1)"><tspan x="0" y="0">Chiclayo</tspan></text>
          <text class="cls-2" transform="translate(239.61 629.59) scale(1.18 1)"><tspan x="0" y="0">Trujillo</tspan></text>
          <text class="cls-2" transform="translate(828.98 1377.35) scale(1.18 1)"><tspan x="0" y="0">Arequipa</tspan></text>
          <text class="cls-4" transform="translate(357.38 1001.68) scale(1.18 1)"><tspan x="0" y="0">Lima</tspan></text>
          <g>
            <rect class="cls-8" x="497.47" y="1191.67" width="198.49" height="54.7" rx="16.96" ry="16.96"/>
            <path class="cls-3" d="M577.35,1247.89v19.85c0,.95.87,1.67,1.8,1.49l103.89-19.85c1.81-.35,1.56-3.01-.28-3.01h-103.89c-.84,0-1.52.68-1.52,1.52Z"/>
          </g>
          <text class="cls-2" transform="translate(568.12 1227.06) scale(1.18 1)"><tspan x="0" y="0">Ica</tspan></text>
        </g>
      </g>
    </g>
  </g>
</svg>