<?xml version="1.0" encoding="UTF-8"?>
<svg id="Capa_2" data-name="Capa 2" xmlns="http://www.w3.org/2000/svg" viewBox="0 0 30.89 30.89">
  <defs>
    <style>
      .cls-1 {
        fill: aqua;
      }
    </style>
  </defs>
  <g id="Capa_5" data-name="Capa 5">
    <g>
      <path class="cls-1" d="M30.89,25.22c-.17.46-.3.94-.53,1.36-.21.37-.53.68-.8,1.01-.66.78-1.32,1.54-2.19,2.1-1.52.96-3.17,1.31-4.95,1.18-2.69-.21-5.16-1.11-7.47-2.44-5.58-3.19-9.92-7.61-12.92-13.31-.98-1.87-1.66-3.85-1.93-5.96-.32-2.53.18-4.83,1.99-6.72.6-.62,1.26-1.18,1.94-1.71,1.25-.97,3.15-.9,4.36.12.1.08.19.18.27.28.9,1.15,1.8,2.29,2.69,3.45,1.04,1.35.94,3.22-.26,4.5-.58.61-1.17,1.21-1.77,1.81-.14.14-.17.25-.09.44,2.15,4.73,5.53,8.23,10.31,10.34.2.09.31.07.47-.08.56-.56,1.13-1.12,1.7-1.67,1.46-1.4,3.37-1.42,4.92-.12.92.78,1.9,1.49,2.86,2.21.74.56,1.19,1.29,1.35,2.2,0,.04.03.07.05.1v.9ZM23.21,29.61c1.49,0,2.96-.44,4.16-1.56.67-.63,1.29-1.33,1.84-2.07.7-.93.46-2.22-.46-2.92-1-.77-2.03-1.52-3.01-2.32-1.01-.82-2.19-.81-3.12.09-.7.68-1.4,1.36-2.09,2.05-.28.28-.58.38-.95.2-.18-.09-.37-.15-.56-.23-5.25-2.32-8.91-6.2-11.17-11.44-.19-.44-.11-.75.22-1.08.72-.71,1.43-1.44,2.12-2.18.73-.79.76-1.97.11-2.8-.82-1.06-1.68-2.08-2.45-3.17-.73-1.03-2.25-1.16-3.19-.32-.4.36-.81.72-1.23,1.07-1.62,1.39-2.24,3.18-2.14,5.27.08,1.6.48,3.13,1.08,4.61,1.14,2.83,2.82,5.32,4.82,7.6,2.71,3.09,5.82,5.68,9.53,7.5,2,.98,4.09,1.65,6.48,1.71Z"/>
      <path class="cls-1" d="M18.22,0c.65.1,1.31.17,1.96.3,5.3,1.08,9.53,5.44,10.48,10.76.09.53.16,1.07.23,1.6v1.03c-.13.23-.29.43-.59.46-.37.04-.65-.24-.7-.66-.1-.92-.11-1.86-.34-2.74-1.28-4.9-4.41-7.97-9.33-9.17-.77-.19-1.59-.21-2.39-.28-.48-.05-.71-.16-.79-.5C16.68.47,16.8.25,17.19,0,17.54,0,17.88,0,18.22,0Z"/>
      <path class="cls-1" d="M25.74,13.15s0,.16,0,.27c0,.43-.26.73-.63.73-.36,0-.62-.27-.66-.68-.04-.44-.06-.88-.13-1.32-.53-2.93-3.01-5.27-5.98-5.65-.3-.04-.6-.05-.9-.07-.43-.03-.72-.3-.7-.67.01-.37.31-.63.74-.63,4.04,0,7.65,3.16,8.17,7.17.03.26.06.52.09.84Z"/>
    </g>
  </g>
</svg>